<?xml version="1.0" encoding="utf-8"?>
<!-- Generator: Adobe Illustrator 15.0.2, SVG Export Plug-In . SVG Version: 6.00 Build 0)  -->
<!DOCTYPE svg PUBLIC "-//W3C//DTD SVG 1.1//EN" "http://www.w3.org/Graphics/SVG/1.1/DTD/svg11.dtd">
<svg version="1.1" id="Layer_1" xmlns="http://www.w3.org/2000/svg" xmlns:xlink="http://www.w3.org/1999/xlink" x="0px" y="0px"
	 width="1190.55px" height="841.89px" viewBox="0 0 1190.55 841.89" enable-background="new 0 0 1190.55 841.89"
	 xml:space="preserve">
<rect x="810.632" y="676.779" fill="#FFFFFF" width="305.224" height="93.031"/>
<path fill="#AAABAB" d="M1116.992,771H809.496v-95.411h307.496V771z M811.77,768.619h302.949v-90.649H811.77V768.619z"/>
<polygon fill="#AFAFB0" points="833.27,693.28 833.27,716.358 893.179,716.358 893.275,693.28 "/>
<polygon fill="#898989" points="896.322,693.28 896.322,716.358 956.232,716.358 956.329,693.28 "/>
<polygon fill="#6F6E6F" points="959.377,693.28 959.377,716.358 1019.286,716.358 1019.383,693.28 "/>
<polygon fill="#ED777A" points="833.27,728.356 833.27,751.435 868.213,751.435 868.327,728.356 "/>
<polygon fill="#FFFABC" points="906.005,728.356 871.877,728.356 871.761,751.435 906.005,751.435 "/>
<polygon fill="#A4D5B9" points="909.439,728.356 909.439,751.435 944.383,751.435 944.5,728.356 "/>
<polygon fill="#99D4F2" points="982.176,728.356 948.047,728.356 947.933,751.435 982.176,751.435 "/>
<polygon fill="#B972AC" points="1019.34,728.356 985.211,728.356 985.096,751.435 1019.34,751.435 "/>
<g>
	<defs>
		<rect id="SVGID_1_" width="1190.55" height="841.89"/>
	</defs>
	<clipPath id="SVGID_2_">
		<use xlink:href="#SVGID_1_"  overflow="visible"/>
	</clipPath>
	<path clip-path="url(#SVGID_2_)" fill="#898989" d="M591.734,419.788h5.311v17.662h-3.439v-11.946c0-0.344,0.004-0.825,0.012-1.444
		c0.008-0.619,0.012-1.096,0.012-1.432l-3.347,14.822h-3.587l-3.323-14.822c0,0.336,0.004,0.812,0.011,1.432
		c0.008,0.619,0.012,1.101,0.012,1.444v11.946h-3.438v-17.662h5.37l3.216,13.889L591.734,419.788z"/>
	<path clip-path="url(#SVGID_2_)" fill="#898989" d="M608.695,424.653c0.91,0.408,1.663,1.054,2.258,1.933
		c0.533,0.776,0.881,1.677,1.039,2.7c0.092,0.601,0.131,1.465,0.113,2.592h-9.514c0.055,1.311,0.51,2.229,1.367,2.757
		c0.521,0.327,1.147,0.491,1.883,0.491c0.777,0,1.41-0.199,1.896-0.6c0.264-0.215,0.5-0.515,0.702-0.898h3.487
		c-0.092,0.775-0.514,1.562-1.266,2.361c-1.17,1.27-2.809,1.904-4.914,1.904c-1.738,0-3.273-0.535-4.602-1.606
		s-1.992-2.814-1.992-5.229c0-2.262,0.6-3.998,1.799-5.205s2.756-1.811,4.67-1.811C606.76,424.042,607.785,424.246,608.695,424.653
		 M603.586,427.604c-0.482,0.497-0.785,1.171-0.91,2.021h5.885c-0.062-0.906-0.365-1.595-0.911-2.064
		c-0.544-0.469-1.218-0.703-2.024-0.703C604.748,426.858,604.068,427.106,603.586,427.604"/>
	<path clip-path="url(#SVGID_2_)" fill="#898989" d="M612.492,426.942v-2.434h1.82v-3.643h3.379v3.643h2.121v2.434h-2.121v6.901
		c0,0.536,0.068,0.869,0.205,1.001c0.135,0.131,0.551,0.197,1.246,0.197c0.104,0,0.213-0.002,0.328-0.006
		c0.117-0.004,0.23-0.01,0.342-0.018v2.552l-1.617,0.061c-1.613,0.056-2.717-0.224-3.307-0.839c-0.385-0.392-0.576-0.995-0.576-1.81
		v-8.04H612.492z"/>
	<path clip-path="url(#SVGID_2_)" fill="#898989" d="M631.393,424.461c0.656,0.279,1.195,0.707,1.617,1.283
		c0.357,0.488,0.576,0.989,0.656,1.505c0.078,0.517,0.119,1.358,0.119,2.523v7.677h-3.488v-7.953c0-0.703-0.119-1.271-0.355-1.703
		c-0.311-0.607-0.896-0.912-1.762-0.912c-0.895,0-1.576,0.302-2.039,0.906c-0.465,0.604-0.695,1.465-0.695,2.584v7.078h-3.416
		v-17.602h3.416v6.231c0.492-0.76,1.062-1.289,1.711-1.588c0.648-0.3,1.33-0.449,2.047-0.449
		C630.006,424.042,630.736,424.181,631.393,424.461"/>
	<path clip-path="url(#SVGID_2_)" fill="#898989" d="M649.146,425.299c-0.279-1.206-0.963-2.049-2.049-2.528
		c-0.607-0.264-1.283-0.396-2.025-0.396c-1.422,0-2.59,0.537-3.506,1.61c-0.914,1.071-1.371,2.684-1.371,4.836
		c0,2.169,0.494,3.705,1.486,4.604c0.99,0.901,2.115,1.353,3.379,1.353c1.238,0,2.252-0.356,3.043-1.066s1.277-1.642,1.463-2.793
		h-4.088v-2.948h7.359v9.479h-2.445l-0.371-2.205c-0.711,0.836-1.352,1.424-1.918,1.766c-0.975,0.598-2.172,0.896-3.594,0.896
		c-2.342,0-4.26-0.811-5.752-2.431c-1.559-1.629-2.338-3.856-2.338-6.683c0-2.858,0.787-5.149,2.361-6.874
		c1.574-1.724,3.654-2.586,6.242-2.586c2.246,0,4.049,0.569,5.41,1.707c1.363,1.139,2.145,2.559,2.344,4.26H649.146z"/>
	<path clip-path="url(#SVGID_2_)" fill="#898989" d="M666.977,435.852c-1.102,1.361-2.775,2.041-5.02,2.041
		c-2.246,0-3.92-0.68-5.021-2.041c-1.104-1.36-1.654-2.999-1.654-4.914c0-1.885,0.551-3.516,1.654-4.896
		c1.102-1.381,2.775-2.072,5.021-2.072c2.244,0,3.918,0.691,5.02,2.072c1.104,1.381,1.654,3.012,1.654,4.896
		C668.631,432.853,668.08,434.492,666.977,435.852 M664.244,433.965c0.535-0.711,0.803-1.719,0.803-3.027s-0.268-2.316-0.803-3.021
		c-0.535-0.706-1.301-1.059-2.301-1.059c-0.998,0-1.768,0.353-2.307,1.059c-0.539,0.705-0.809,1.713-0.809,3.021
		s0.27,2.316,0.809,3.027c0.539,0.709,1.309,1.064,2.307,1.064C662.943,435.03,663.709,434.674,664.244,433.965"/>
	<path clip-path="url(#SVGID_2_)" fill="#E60012" d="M919.964,481.314l-2.518-10.002v10.838c0,0.6-0.133,1.049-0.402,1.35
		c-0.269,0.299-0.621,0.449-1.064,0.449c-0.428,0-0.779-0.148-1.049-0.445c-0.271-0.295-0.408-0.746-0.408-1.354v-12.422
		c0-0.686,0.18-1.148,0.535-1.387c0.357-0.24,0.84-0.359,1.447-0.359h0.984c0.592,0,1.023,0.053,1.291,0.16s0.465,0.301,0.594,0.578
		c0.129,0.279,0.276,0.732,0.439,1.36l2.281,8.6l2.281-8.6c0.164-0.628,0.311-1.081,0.438-1.36c0.13-0.277,0.328-0.471,0.596-0.578
		s0.697-0.16,1.289-0.16h0.986c0.605,0,1.088,0.119,1.445,0.359c0.357,0.238,0.535,0.701,0.535,1.387v12.422
		c0,0.6-0.133,1.049-0.4,1.35c-0.27,0.299-0.627,0.449-1.076,0.449c-0.422,0-0.768-0.15-1.038-0.449
		c-0.272-0.301-0.409-0.75-0.409-1.35v-10.838l-2.516,10.002c-0.164,0.65-0.299,1.127-0.402,1.43
		c-0.104,0.305-0.295,0.58-0.572,0.83c-0.279,0.25-0.664,0.375-1.156,0.375c-0.371,0-0.686-0.08-0.944-0.24
		c-0.255-0.162-0.456-0.367-0.599-0.617s-0.256-0.525-0.338-0.829S920.048,481.643,919.964,481.314"/>
	<path clip-path="url(#SVGID_2_)" fill="#E60012" d="M943.276,470.434h-7.164v3.854h6.596c0.486,0,0.85,0.109,1.089,0.328
		c0.237,0.217,0.358,0.504,0.358,0.861s-0.119,0.648-0.354,0.873c-0.236,0.225-0.6,0.337-1.094,0.337h-6.596v4.466h7.41
		c0.5,0,0.877,0.116,1.131,0.348c0.252,0.232,0.379,0.541,0.379,0.927c0,0.37-0.127,0.673-0.379,0.905
		c-0.254,0.232-0.631,0.348-1.131,0.348h-8.642c-0.692,0-1.19-0.154-1.493-0.461c-0.305-0.308-0.455-0.803-0.455-1.488v-11.801
		c0-0.457,0.066-0.83,0.203-1.119c0.135-0.289,0.348-0.5,0.637-0.632s0.658-0.198,1.108-0.198h8.396
		c0.508,0,0.883,0.112,1.131,0.338c0.246,0.225,0.369,0.519,0.369,0.883c0,0.371-0.123,0.67-0.369,0.895
		C944.159,470.322,943.784,470.434,943.276,470.434"/>
	<path clip-path="url(#SVGID_2_)" fill="#E60012" d="M957.755,470.605h-3.471v11.406c0,0.656-0.146,1.143-0.438,1.461
		c-0.293,0.318-0.672,0.477-1.137,0.477c-0.471,0-0.854-0.16-1.15-0.482c-0.297-0.32-0.445-0.807-0.445-1.455v-11.406h-3.469
		c-0.543,0-0.945-0.119-1.211-0.358c-0.264-0.239-0.396-0.555-0.396-0.948c0-0.406,0.139-0.728,0.414-0.963
		c0.273-0.236,0.672-0.354,1.193-0.354h10.109c0.549,0,0.959,0.121,1.227,0.363c0.268,0.244,0.4,0.561,0.4,0.953
		c0,0.394-0.135,0.709-0.406,0.948S958.298,470.605,957.755,470.605"/>
	<path clip-path="url(#SVGID_2_)" fill="#FCC800" d="M404.434,645.159h-3.47v11.404c0,0.657-0.146,1.145-0.438,1.461
		c-0.293,0.318-0.672,0.477-1.136,0.477c-0.471,0-0.854-0.16-1.151-0.48c-0.296-0.322-0.445-0.807-0.445-1.457v-11.404h-3.469
		c-0.542,0-0.946-0.121-1.21-0.359c-0.264-0.24-0.397-0.555-0.397-0.947c0-0.408,0.138-0.729,0.413-0.964
		c0.275-0.235,0.673-0.354,1.194-0.354h10.109c0.55,0,0.959,0.121,1.227,0.365c0.267,0.242,0.401,0.561,0.401,0.953
		s-0.136,0.707-0.407,0.947C405.383,645.038,404.977,645.159,404.434,645.159"/>
	<path clip-path="url(#SVGID_2_)" fill="#FCC800" d="M407.367,655.182l3.513-5.131l-2.955-4.561
		c-0.279-0.443-0.488-0.824-0.627-1.141c-0.139-0.318-0.209-0.623-0.209-0.916c0-0.301,0.133-0.57,0.402-0.809
		c0.268-0.24,0.594-0.359,0.98-0.359c0.442,0,0.787,0.131,1.033,0.391c0.246,0.262,0.587,0.744,1.022,1.451l2.357,3.812l2.516-3.812
		c0.207-0.32,0.384-0.596,0.531-0.824c0.145-0.229,0.287-0.418,0.422-0.568c0.136-0.148,0.287-0.262,0.455-0.336
		c0.168-0.076,0.363-0.113,0.584-0.113c0.4,0,0.726,0.119,0.98,0.359c0.253,0.238,0.38,0.523,0.38,0.852
		c0,0.479-0.275,1.127-0.824,1.949l-3.095,4.625l3.33,5.131c0.3,0.449,0.518,0.822,0.653,1.119c0.136,0.295,0.203,0.576,0.203,0.84
		c0,0.25-0.06,0.479-0.181,0.687c-0.121,0.206-0.293,0.37-0.514,0.491c-0.222,0.121-0.472,0.182-0.75,0.182
		c-0.3,0-0.554-0.062-0.761-0.188s-0.374-0.279-0.503-0.465s-0.368-0.547-0.717-1.082l-2.763-4.348l-2.935,4.477
		c-0.228,0.357-0.39,0.607-0.487,0.75c-0.096,0.143-0.212,0.281-0.348,0.418c-0.135,0.135-0.296,0.242-0.481,0.32
		c-0.187,0.078-0.404,0.117-0.653,0.117c-0.386,0-0.705-0.117-0.959-0.354c-0.253-0.234-0.38-0.578-0.38-1.027
		C406.586,656.592,406.846,655.946,407.367,655.182"/>
	<path clip-path="url(#SVGID_2_)" fill="#FCC800" d="M425.337,644.172l6.115,9.252v-9.338c0-0.605,0.13-1.061,0.391-1.365
		c0.261-0.303,0.612-0.455,1.055-0.455c0.457,0,0.817,0.152,1.082,0.455c0.263,0.305,0.396,0.76,0.396,1.365v12.348
		c0,1.379-0.571,2.066-1.714,2.066c-0.285,0-0.543-0.041-0.77-0.123c-0.23-0.082-0.444-0.211-0.643-0.391
		c-0.2-0.178-0.386-0.387-0.558-0.627c-0.17-0.238-0.342-0.482-0.513-0.732l-5.965-9.146v9.199c0,0.6-0.14,1.053-0.418,1.361
		c-0.278,0.307-0.635,0.459-1.07,0.459c-0.451,0-0.811-0.154-1.082-0.465c-0.272-0.311-0.408-0.762-0.408-1.355v-12.112
		c0-0.513,0.058-0.917,0.172-1.21c0.136-0.32,0.361-0.582,0.675-0.787c0.314-0.203,0.653-0.305,1.017-0.305
		c0.286,0,0.53,0.047,0.734,0.139c0.203,0.094,0.382,0.219,0.535,0.375c0.154,0.158,0.311,0.361,0.471,0.611
		C425,643.641,425.166,643.901,425.337,644.172"/>
	<path clip-path="url(#SVGID_2_)" fill="#5869B0" d="M331.246,282.21c0,0.949-0.245,1.803-0.734,2.56
		c-0.489,0.756-1.204,1.349-2.147,1.777c-0.942,0.429-2.059,0.642-3.352,0.642c-1.549,0-2.828-0.292-3.833-0.877
		c-0.714-0.421-1.295-0.984-1.741-1.687c-0.446-0.703-0.67-1.387-0.67-2.051c0-0.385,0.134-0.716,0.403-0.991
		c0.267-0.274,0.608-0.412,1.022-0.412c0.335,0,0.619,0.107,0.852,0.321c0.231,0.215,0.429,0.532,0.594,0.953
		c0.2,0.5,0.416,0.918,0.648,1.253c0.231,0.336,0.559,0.613,0.979,0.83c0.421,0.218,0.975,0.328,1.661,0.328
		c0.942,0,1.708-0.22,2.297-0.66c0.588-0.438,0.883-0.986,0.883-1.643c0-0.522-0.159-0.945-0.476-1.27
		c-0.319-0.324-0.729-0.572-1.232-0.744c-0.504-0.171-1.176-0.353-2.019-0.546c-1.128-0.263-2.072-0.573-2.832-0.927
		c-0.761-0.352-1.364-0.835-1.81-1.445c-0.446-0.61-0.67-1.369-0.67-2.275c0-0.865,0.237-1.632,0.707-2.303
		c0.472-0.671,1.154-1.187,2.046-1.547c0.892-0.361,1.942-0.541,3.149-0.541c0.963,0,1.796,0.119,2.5,0.359
		c0.703,0.239,1.287,0.556,1.751,0.953c0.463,0.396,0.803,0.812,1.017,1.248c0.214,0.435,0.321,0.86,0.321,1.274
		c0,0.378-0.133,0.719-0.401,1.023c-0.268,0.303-0.601,0.455-1.002,0.455c-0.364,0-0.64-0.091-0.83-0.274
		c-0.188-0.181-0.394-0.479-0.615-0.893c-0.286-0.593-0.629-1.056-1.028-1.388c-0.4-0.331-1.042-0.497-1.928-0.497
		c-0.822,0-1.484,0.18-1.987,0.54c-0.502,0.361-0.754,0.795-0.754,1.302c0,0.313,0.085,0.585,0.256,0.813
		c0.172,0.229,0.408,0.425,0.707,0.589c0.3,0.165,0.604,0.293,0.911,0.386c0.306,0.093,0.813,0.228,1.52,0.407
		c0.886,0.207,1.687,0.436,2.404,0.686c0.718,0.25,1.329,0.552,1.831,0.91c0.504,0.356,0.897,0.808,1.178,1.354
		C331.104,280.748,331.246,281.417,331.246,282.21"/>
	<path clip-path="url(#SVGID_2_)" fill="#5869B0" d="M338.088,272.861l6.115,9.252v-9.338c0-0.606,0.13-1.061,0.391-1.365
		c0.261-0.304,0.612-0.455,1.055-0.455c0.457,0,0.817,0.151,1.082,0.455c0.263,0.304,0.396,0.759,0.396,1.365v12.348
		c0,1.378-0.571,2.066-1.714,2.066c-0.285,0-0.543-0.041-0.77-0.123c-0.23-0.082-0.444-0.212-0.643-0.391
		c-0.2-0.178-0.386-0.387-0.558-0.626c-0.17-0.24-0.342-0.484-0.513-0.734l-5.965-9.145v9.199c0,0.599-0.14,1.053-0.418,1.36
		s-0.635,0.46-1.07,0.46c-0.451,0-0.811-0.155-1.082-0.466c-0.272-0.31-0.408-0.761-0.408-1.354v-12.112
		c0-0.514,0.058-0.917,0.172-1.21c0.136-0.322,0.361-0.583,0.675-0.788c0.314-0.203,0.653-0.304,1.017-0.304
		c0.286,0,0.53,0.046,0.734,0.138c0.203,0.093,0.382,0.218,0.535,0.375c0.154,0.158,0.311,0.361,0.471,0.611
		C337.751,272.33,337.917,272.59,338.088,272.861"/>
	<path clip-path="url(#SVGID_2_)" fill="#5869B0" d="M356.702,280.806h-2.914v4.445c0,0.635-0.149,1.118-0.449,1.446
		c-0.3,0.328-0.679,0.492-1.136,0.492c-0.477,0-0.863-0.162-1.156-0.487c-0.293-0.324-0.438-0.801-0.438-1.43v-12.1
		c0-0.701,0.16-1.2,0.481-1.5c0.321-0.3,0.832-0.45,1.531-0.45h4.081c1.207,0,2.134,0.093,2.784,0.279
		c0.642,0.178,1.198,0.474,1.666,0.888c0.466,0.414,0.822,0.921,1.065,1.521c0.242,0.599,0.364,1.274,0.364,2.024
		c0,1.6-0.493,2.811-1.478,3.636C360.118,280.395,358.651,280.806,356.702,280.806 M355.931,273.61h-2.143v4.798h2.143
		c0.749,0,1.376-0.078,1.879-0.236c0.504-0.157,0.887-0.414,1.151-0.771c0.264-0.356,0.396-0.824,0.396-1.402
		c0-0.693-0.204-1.257-0.611-1.693C358.29,273.842,357.351,273.61,355.931,273.61"/>
	<path clip-path="url(#SVGID_2_)" fill="#3E8838" d="M291.489,459.485c0,0.5-0.123,1.041-0.369,1.623s-0.634,1.152-1.162,1.713
		c-0.529,0.56-1.203,1.016-2.025,1.365c-0.82,0.35-1.777,0.525-2.87,0.525c-0.828,0-1.581-0.078-2.259-0.236
		c-0.678-0.156-1.294-0.4-1.847-0.732c-0.554-0.332-1.062-0.77-1.527-1.312c-0.414-0.492-0.767-1.045-1.059-1.654
		c-0.293-0.611-0.513-1.262-0.659-1.955c-0.147-0.691-0.219-1.428-0.219-2.205c0-1.264,0.183-2.396,0.551-3.395
		c0.368-1,0.894-1.855,1.58-2.566c0.685-0.709,1.488-1.25,2.409-1.621s1.902-0.557,2.945-0.557c1.271,0,2.403,0.252,3.395,0.76
		c0.992,0.506,1.753,1.133,2.281,1.879s0.792,1.451,0.792,2.115c0,0.363-0.128,0.686-0.386,0.965
		c-0.257,0.277-0.567,0.416-0.931,0.416c-0.407,0-0.712-0.096-0.915-0.289c-0.204-0.192-0.431-0.523-0.681-0.996
		c-0.414-0.777-0.901-1.359-1.461-1.744c-0.561-0.387-1.252-0.578-2.072-0.578c-1.307,0-2.348,0.496-3.122,1.488
		c-0.775,0.992-1.162,2.402-1.162,4.23c0,1.221,0.171,2.236,0.514,3.045c0.343,0.811,0.828,1.416,1.456,1.816
		c0.628,0.4,1.364,0.6,2.206,0.6c0.914,0,1.687-0.227,2.319-0.68c0.632-0.453,1.108-1.119,1.429-1.999
		c0.136-0.413,0.304-0.751,0.503-1.011c0.2-0.26,0.522-0.391,0.964-0.391c0.379,0,0.703,0.133,0.975,0.396
		C291.354,458.764,291.489,459.092,291.489,459.485"/>
	<path clip-path="url(#SVGID_2_)" fill="#3E8838" d="M301.255,448.477c1.627,0,3.025,0.33,4.193,0.99
		c1.167,0.66,2.051,1.6,2.65,2.816c0.6,1.217,0.9,2.646,0.9,4.288c0,1.214-0.164,2.317-0.493,3.31s-0.821,1.854-1.478,2.58
		c-0.656,0.729-1.463,1.285-2.42,1.672c-0.957,0.385-2.053,0.578-3.288,0.578c-1.228,0-2.327-0.199-3.298-0.594
		c-0.971-0.396-1.781-0.955-2.431-1.678c-0.65-0.721-1.14-1.588-1.472-2.602c-0.332-1.014-0.498-2.109-0.498-3.287
		c0-1.207,0.173-2.314,0.519-3.32c0.346-1.006,0.848-1.863,1.504-2.57c0.657-0.707,1.457-1.248,2.4-1.623
		C298.985,448.665,300.055,448.477,301.255,448.477 M305.774,456.551c0-1.15-0.186-2.146-0.557-2.988s-0.901-1.479-1.589-1.912
		c-0.69-0.432-1.481-0.646-2.373-0.646c-0.635,0-1.222,0.119-1.761,0.357c-0.539,0.24-1.004,0.588-1.393,1.044
		c-0.389,0.457-0.696,1.041-0.921,1.75c-0.224,0.712-0.337,1.511-0.337,2.396c0,0.893,0.113,1.699,0.337,2.42
		c0.225,0.721,0.543,1.318,0.953,1.793c0.411,0.474,0.882,0.83,1.414,1.066c0.532,0.236,1.116,0.354,1.75,0.354
		c0.815,0,1.563-0.203,2.245-0.612c0.681-0.405,1.224-1.034,1.628-1.884C305.573,458.838,305.774,457.793,305.774,456.551"/>
	<path clip-path="url(#SVGID_2_)" fill="#3E8838" d="M313.475,450.565l3.556,10.527l3.566-10.604
		c0.186-0.557,0.324-0.943,0.417-1.16c0.093-0.219,0.246-0.414,0.461-0.59c0.214-0.176,0.507-0.262,0.878-0.262
		c0.271,0,0.522,0.067,0.755,0.203c0.232,0.135,0.414,0.316,0.546,0.541c0.133,0.225,0.198,0.451,0.198,0.68
		c0,0.156-0.022,0.326-0.064,0.508c-0.042,0.184-0.096,0.361-0.161,0.535c-0.064,0.176-0.129,0.355-0.192,0.541l-3.802,10.26
		c-0.136,0.393-0.271,0.766-0.407,1.119c-0.136,0.354-0.293,0.664-0.472,0.932c-0.177,0.268-0.416,0.488-0.712,0.658
		c-0.296,0.172-0.658,0.258-1.087,0.258c-0.428,0-0.791-0.083-1.086-0.251c-0.296-0.169-0.536-0.39-0.718-0.665
		c-0.182-0.275-0.341-0.588-0.477-0.938c-0.136-0.35-0.271-0.721-0.406-1.113l-3.737-10.174c-0.065-0.186-0.131-0.367-0.199-0.545
		c-0.068-0.18-0.125-0.371-0.171-0.58c-0.046-0.205-0.07-0.381-0.07-0.523c0-0.365,0.147-0.697,0.44-0.996
		c0.292-0.301,0.66-0.449,1.102-0.449c0.543,0,0.927,0.166,1.152,0.498C313.009,449.307,313.24,449.836,313.475,450.565"/>
	<path clip-path="url(#SVGID_2_)" fill="#9E4093" d="M492.927,147.051c0,0.5-0.123,1.04-0.369,1.622s-0.634,1.153-1.162,1.714
		c-0.529,0.56-1.203,1.016-2.025,1.365c-0.82,0.35-1.777,0.525-2.87,0.525c-0.828,0-1.581-0.079-2.259-0.236
		c-0.678-0.157-1.294-0.401-1.847-0.733c-0.554-0.332-1.062-0.77-1.527-1.313c-0.414-0.492-0.767-1.044-1.059-1.654
		c-0.293-0.61-0.513-1.262-0.659-1.954c-0.147-0.692-0.219-1.428-0.219-2.206c0-1.264,0.183-2.396,0.551-3.395
		c0.368-1,0.894-1.854,1.58-2.565c0.685-0.71,1.488-1.251,2.409-1.622s1.902-0.557,2.945-0.557c1.271,0,2.403,0.254,3.395,0.76
		c0.992,0.507,1.753,1.134,2.281,1.88s0.792,1.451,0.792,2.115c0,0.363-0.128,0.685-0.386,0.964
		c-0.257,0.278-0.567,0.417-0.931,0.417c-0.407,0-0.712-0.096-0.915-0.289c-0.204-0.192-0.431-0.525-0.681-0.996
		c-0.414-0.778-0.901-1.36-1.461-1.745c-0.561-0.386-1.252-0.579-2.072-0.579c-1.307,0-2.348,0.497-3.122,1.489
		c-0.775,0.992-1.162,2.402-1.162,4.23c0,1.221,0.171,2.237,0.514,3.046c0.343,0.811,0.828,1.416,1.456,1.816
		c0.628,0.4,1.364,0.599,2.206,0.599c0.914,0,1.687-0.226,2.319-0.679c0.632-0.454,1.108-1.12,1.429-1.998
		c0.136-0.414,0.304-0.751,0.503-1.012c0.2-0.26,0.522-0.391,0.964-0.391c0.379,0,0.703,0.133,0.975,0.397
		C492.791,146.329,492.927,146.658,492.927,147.051"/>
	<path clip-path="url(#SVGID_2_)" fill="#9E4093" d="M499.93,137.948l6.115,9.252v-9.337c0-0.607,0.13-1.062,0.391-1.366
		c0.261-0.303,0.612-0.455,1.055-0.455c0.457,0,0.817,0.152,1.082,0.455c0.263,0.304,0.396,0.759,0.396,1.366v12.347
		c0,1.378-0.571,2.067-1.714,2.067c-0.285,0-0.543-0.041-0.77-0.123c-0.23-0.082-0.444-0.212-0.643-0.391
		c-0.2-0.179-0.386-0.388-0.558-0.627c-0.17-0.239-0.342-0.483-0.513-0.733l-5.965-9.146v9.199c0,0.6-0.14,1.053-0.418,1.361
		c-0.278,0.306-0.635,0.46-1.07,0.46c-0.451,0-0.811-0.156-1.082-0.466c-0.272-0.311-0.408-0.762-0.408-1.354v-12.112
		c0-0.514,0.058-0.917,0.172-1.209c0.136-0.322,0.361-0.584,0.675-0.788c0.314-0.203,0.653-0.305,1.017-0.305
		c0.286,0,0.53,0.047,0.734,0.139c0.203,0.093,0.382,0.218,0.535,0.375c0.154,0.157,0.311,0.361,0.471,0.61
		C499.593,137.417,499.759,137.677,499.93,137.948"/>
	<path clip-path="url(#SVGID_2_)" fill="#9E4093" d="M514.772,138.13l3.556,10.527l3.566-10.602
		c0.186-0.557,0.324-0.944,0.417-1.162c0.093-0.218,0.246-0.414,0.461-0.589c0.214-0.174,0.507-0.262,0.878-0.262
		c0.271,0,0.522,0.068,0.755,0.203c0.232,0.136,0.414,0.316,0.546,0.541c0.133,0.225,0.198,0.452,0.198,0.68
		c0,0.157-0.022,0.327-0.064,0.509c-0.042,0.182-0.096,0.361-0.161,0.535c-0.064,0.175-0.129,0.355-0.192,0.541l-3.802,10.26
		c-0.136,0.392-0.271,0.765-0.407,1.119c-0.136,0.352-0.293,0.663-0.472,0.931c-0.177,0.268-0.416,0.488-0.712,0.659
		c-0.296,0.171-0.658,0.256-1.087,0.256c-0.428,0-0.791-0.083-1.086-0.251c-0.296-0.167-0.536-0.389-0.718-0.664
		c-0.182-0.275-0.341-0.587-0.477-0.937c-0.136-0.35-0.271-0.721-0.406-1.113l-3.737-10.174c-0.065-0.186-0.131-0.368-0.199-0.547
		c-0.068-0.178-0.125-0.371-0.171-0.578s-0.07-0.382-0.07-0.525c0-0.363,0.147-0.695,0.44-0.995c0.292-0.3,0.66-0.45,1.102-0.45
		c0.543,0,0.927,0.166,1.152,0.498C514.307,136.873,514.538,137.402,514.772,138.13"/>
	<path clip-path="url(#SVGID_2_)" fill="#1F1E1D" d="M1116,791.921H128c-14.612,0-26.5-11.888-26.5-26.5V54
		c0-14.612,11.888-26.5,26.5-26.5h988c14.612,0,26.5,11.888,26.5,26.5v711.421C1142.5,780.034,1130.612,791.921,1116,791.921
		 M128,28.5c-14.061,0-25.5,11.439-25.5,25.5v711.421c0,14.061,11.439,25.5,25.5,25.5h988c14.061,0,25.5-11.439,25.5-25.5V54
		c0-14.061-11.439-25.5-25.5-25.5H128z"/>
	<path clip-path="url(#SVGID_2_)" fill="#9FA0A0" d="M624.67,155.514c-0.23,0.003-0.436,0.093-0.582,0.245
		c-0.148,0.146-0.238,0.351-0.238,0.579l0.008,2.868c0,0.455,0.369,0.819,0.82,0.818c0.455-0.003,0.82-0.367,0.818-0.823
		l-0.008-2.867C625.49,155.879,625.121,155.514,624.67,155.514"/>
	<path clip-path="url(#SVGID_2_)" fill="#9FA0A0" d="M624.596,128.733c0.455-0.002,0.818-0.372,0.82-0.827l-0.014-5.681
		c-0.002-0.454-0.371-0.819-0.822-0.817c-0.229-0.003-0.434,0.091-0.582,0.239c-0.148,0.15-0.238,0.355-0.236,0.583l0.014,5.684
		C623.777,128.365,624.145,128.729,624.596,128.733"/>
	<path clip-path="url(#SVGID_2_)" fill="#9FA0A0" d="M624.363,37.773c0.451,0.002,0.818-0.368,0.814-0.821l-0.014-5.686
		c-0.002-0.452-0.371-0.819-0.824-0.817c-0.225,0-0.43,0.095-0.578,0.242c-0.148,0.15-0.238,0.357-0.236,0.58l0.014,5.684
		C623.541,37.41,623.91,37.774,624.363,37.773"/>
	<path clip-path="url(#SVGID_2_)" fill="#9FA0A0" d="M624.539,105.993c0.451-0.001,0.82-0.371,0.816-0.821l-0.016-5.689
		c0-0.45-0.365-0.815-0.82-0.817c-0.229,0.001-0.432,0.095-0.582,0.242c-0.146,0.151-0.236,0.356-0.236,0.58l0.016,5.688
		C623.719,105.627,624.086,105.992,624.539,105.993"/>
	<path clip-path="url(#SVGID_2_)" fill="#9FA0A0" d="M624.656,151.47c0.453-0.002,0.818-0.37,0.818-0.822l-0.016-5.684
		c0-0.454-0.367-0.82-0.823-0.817c-0.226,0-0.431,0.091-0.577,0.241c-0.148,0.148-0.238,0.354-0.238,0.58l0.014,5.684
		C623.834,151.104,624.201,151.472,624.656,151.47"/>
	<path clip-path="url(#SVGID_2_)" fill="#9FA0A0" d="M624.629,140.102c0.453-0.001,0.816-0.372,0.816-0.822l-0.016-5.684
		c0-0.455-0.367-0.82-0.82-0.818c-0.229-0.004-0.434,0.092-0.582,0.243c-0.146,0.147-0.236,0.352-0.236,0.579l0.016,5.685
		C623.805,139.733,624.174,140.103,624.629,140.102"/>
	<path clip-path="url(#SVGID_2_)" fill="#9FA0A0" d="M624.568,117.363c0.455-0.002,0.818-0.37,0.818-0.821l-0.016-5.689
		c-0.002-0.451-0.369-0.815-0.824-0.817c-0.225,0.001-0.432,0.094-0.578,0.242c-0.148,0.15-0.238,0.356-0.236,0.583l0.014,5.685
		C623.746,116.997,624.117,117.365,624.568,117.363"/>
	<path clip-path="url(#SVGID_2_)" fill="#9FA0A0" d="M624.51,94.625c0.453-0.001,0.816-0.372,0.818-0.822l-0.016-5.684
		c-0.002-0.455-0.369-0.819-0.822-0.822c-0.229,0.002-0.432,0.095-0.58,0.243c-0.148,0.151-0.24,0.356-0.238,0.579l0.016,5.684
		C623.688,94.257,624.055,94.625,624.51,94.625"/>
	<path clip-path="url(#SVGID_2_)" fill="#9FA0A0" d="M624.449,71.883c0.455,0.001,0.818-0.369,0.818-0.822l-0.014-5.686
		c-0.002-0.451-0.371-0.819-0.824-0.818c-0.227,0.001-0.432,0.095-0.578,0.245c-0.148,0.149-0.238,0.353-0.238,0.58l0.014,5.682
		C623.629,71.518,623.996,71.883,624.449,71.883"/>
	<path clip-path="url(#SVGID_2_)" fill="#9FA0A0" d="M624.393,49.144c0.451,0.001,0.816-0.369,0.816-0.823l-0.016-5.683
		c0-0.452-0.367-0.822-0.822-0.819c-0.227,0-0.43,0.094-0.578,0.242c-0.148,0.151-0.24,0.357-0.24,0.58l0.016,5.686
		C623.57,48.78,623.938,49.145,624.393,49.144"/>
	<path clip-path="url(#SVGID_2_)" fill="#9FA0A0" d="M624.42,60.514c0.453-0.001,0.818-0.37,0.818-0.824l-0.016-5.685
		c0-0.449-0.369-0.817-0.822-0.818c-0.227,0.002-0.432,0.096-0.58,0.243c-0.146,0.151-0.236,0.357-0.238,0.582l0.016,5.685
		C623.598,60.148,623.969,60.513,624.42,60.514"/>
	<path clip-path="url(#SVGID_2_)" fill="#9FA0A0" d="M624.479,83.253c0.455-0.001,0.818-0.37,0.818-0.825l-0.014-5.68
		c0-0.454-0.368-0.821-0.822-0.82c-0.229,0.001-0.434,0.093-0.582,0.243c-0.146,0.148-0.236,0.353-0.236,0.579l0.014,5.683
		C623.66,82.887,624.027,83.253,624.479,83.253"/>
	<path clip-path="url(#SVGID_2_)" fill="#9FA0A0" d="M361.627,381.305l-2.82-0.519c-0.447-0.084-0.873,0.211-0.956,0.656
		c-0.039,0.225,0.011,0.444,0.133,0.616c0.117,0.172,0.301,0.298,0.526,0.341l2.82,0.518c0.448,0.084,0.873-0.211,0.955-0.655
		C362.366,381.814,362.075,381.388,361.627,381.305"/>
	<path clip-path="url(#SVGID_2_)" fill="#9FA0A0" d="M185.493,348.859l-5.59-1.029c-0.447-0.082-0.873,0.212-0.954,0.657
		c-0.044,0.224,0.009,0.441,0.131,0.615c0.118,0.172,0.302,0.299,0.526,0.34l5.59,1.03c0.445,0.082,0.874-0.212,0.955-0.658
		C186.234,349.369,185.936,348.941,185.493,348.859"/>
	<path clip-path="url(#SVGID_2_)" fill="#9FA0A0" d="M174.312,346.799l-5.59-1.03c-0.446-0.083-0.874,0.213-0.955,0.657
		c-0.041,0.225,0.009,0.443,0.131,0.616c0.118,0.171,0.303,0.299,0.526,0.34l5.591,1.029c0.445,0.084,0.873-0.213,0.954-0.656
		C175.051,347.307,174.755,346.882,174.312,346.799"/>
	<path clip-path="url(#SVGID_2_)" fill="#9FA0A0" d="M196.674,350.919l-5.59-1.029c-0.447-0.084-0.873,0.212-0.955,0.657
		c-0.041,0.224,0.012,0.442,0.132,0.616c0.117,0.172,0.302,0.298,0.525,0.339l5.591,1.03c0.445,0.082,0.873-0.213,0.955-0.658
		C197.416,351.428,197.119,351.002,196.674,350.919"/>
	<path clip-path="url(#SVGID_2_)" fill="#9FA0A0" d="M207.856,352.979l-5.591-1.032c-0.445-0.08-0.873,0.214-0.954,0.658
		c-0.043,0.225,0.013,0.442,0.131,0.615c0.118,0.173,0.303,0.3,0.526,0.342l5.591,1.029c0.444,0.082,0.872-0.212,0.954-0.658
		C208.597,353.489,208.301,353.062,207.856,352.979"/>
	<path clip-path="url(#SVGID_2_)" fill="#9FA0A0" d="M163.13,344.74l-5.59-1.032c-0.447-0.081-0.873,0.213-0.955,0.659
		c-0.043,0.225,0.012,0.441,0.132,0.615c0.118,0.172,0.302,0.299,0.526,0.341l5.59,1.028c0.445,0.082,0.874-0.211,0.955-0.657
		C163.87,345.248,163.573,344.823,163.13,344.74"/>
	<path clip-path="url(#SVGID_2_)" fill="#9FA0A0" d="M118.404,336.5l-5.591-1.03c-0.445-0.083-0.872,0.213-0.956,0.657
		c-0.041,0.224,0.013,0.443,0.133,0.616c0.12,0.172,0.305,0.298,0.529,0.34l5.588,1.029c0.447,0.083,0.873-0.21,0.957-0.658
		C119.145,337.011,118.849,336.583,118.404,336.5"/>
	<path clip-path="url(#SVGID_2_)" fill="#9FA0A0" d="M107.223,334.44l-5.59-1.029c-0.046-0.009-0.088,0.003-0.133,0.002v1.64
		l5.426,1.001c0.445,0.082,0.871-0.214,0.957-0.658C107.964,334.948,107.667,334.523,107.223,334.44"/>
	<path clip-path="url(#SVGID_2_)" fill="#9FA0A0" d="M219.037,355.039l-5.59-1.03c-0.445-0.083-0.873,0.211-0.954,0.657
		c-0.042,0.224,0.013,0.443,0.131,0.616c0.12,0.172,0.304,0.298,0.526,0.34l5.59,1.029c0.445,0.083,0.873-0.211,0.955-0.657
		C219.775,355.547,219.483,355.122,219.037,355.039"/>
	<path clip-path="url(#SVGID_2_)" fill="#9FA0A0" d="M140.767,340.62l-5.59-1.029c-0.446-0.083-0.872,0.212-0.955,0.656
		c-0.041,0.226,0.012,0.444,0.133,0.616c0.118,0.172,0.303,0.299,0.526,0.341l5.589,1.029c0.447,0.083,0.875-0.211,0.956-0.657
		C141.508,341.129,141.211,340.702,140.767,340.62"/>
	<path clip-path="url(#SVGID_2_)" fill="#9FA0A0" d="M129.587,338.561l-5.592-1.03c-0.445-0.084-0.871,0.212-0.957,0.658
		c-0.041,0.224,0.014,0.441,0.136,0.615c0.118,0.172,0.302,0.299,0.525,0.339l5.591,1.03c0.443,0.082,0.871-0.212,0.955-0.658
		C130.326,339.068,130.03,338.643,129.587,338.561"/>
	<path clip-path="url(#SVGID_2_)" fill="#9FA0A0" d="M151.949,342.679l-5.59-1.029c-0.447-0.082-0.873,0.213-0.956,0.659
		c-0.042,0.221,0.011,0.44,0.133,0.614c0.118,0.172,0.303,0.298,0.526,0.339l5.59,1.031c0.443,0.081,0.871-0.213,0.955-0.658
		C152.688,343.189,152.392,342.762,151.949,342.679"/>
	<path clip-path="url(#SVGID_2_)" fill="#9FA0A0" d="M263.762,363.277l-5.591-1.029c-0.442-0.083-0.87,0.213-0.954,0.657
		c-0.041,0.224,0.013,0.443,0.131,0.616c0.122,0.172,0.307,0.298,0.528,0.34l5.591,1.03c0.445,0.083,0.87-0.214,0.955-0.657
		C264.503,363.787,264.208,363.36,263.762,363.277"/>
	<path clip-path="url(#SVGID_2_)" fill="#9FA0A0" d="M342.035,377.696l-5.591-1.03c-0.447-0.082-0.873,0.212-0.954,0.657
		c-0.045,0.225,0.01,0.442,0.131,0.616c0.118,0.173,0.303,0.299,0.526,0.34l5.591,1.029c0.442,0.083,0.872-0.211,0.954-0.658
		C342.774,378.204,342.477,377.778,342.035,377.696"/>
	<path clip-path="url(#SVGID_2_)" fill="#9FA0A0" d="M308.491,371.517l-5.595-1.029c-0.443-0.083-0.868,0.21-0.954,0.657
		c-0.041,0.224,0.014,0.442,0.131,0.615c0.122,0.174,0.307,0.299,0.526,0.34l5.595,1.029c0.443,0.082,0.869-0.213,0.954-0.658
		C309.23,372.027,308.934,371.597,308.491,371.517"/>
	<path clip-path="url(#SVGID_2_)" fill="#9FA0A0" d="M319.672,373.576l-5.594-1.029c-0.444-0.082-0.869,0.213-0.955,0.658
		c-0.041,0.223,0.013,0.442,0.132,0.615c0.121,0.172,0.306,0.299,0.529,0.339l5.591,1.03c0.443,0.082,0.874-0.213,0.955-0.657
		C320.411,374.084,320.115,373.659,319.672,373.576"/>
	<path clip-path="url(#SVGID_2_)" fill="#9FA0A0" d="M330.85,375.636l-5.586-1.03c-0.447-0.083-0.873,0.213-0.955,0.657
		c-0.045,0.225,0.01,0.443,0.127,0.616c0.122,0.173,0.307,0.299,0.53,0.34l5.591,1.029c0.443,0.083,0.869-0.212,0.955-0.655
		C331.593,376.146,331.296,375.72,330.85,375.636"/>
	<path clip-path="url(#SVGID_2_)" fill="#9FA0A0" d="M230.218,357.099l-5.59-1.031c-0.445-0.082-0.873,0.213-0.955,0.659
		c-0.041,0.223,0.013,0.441,0.131,0.614c0.12,0.173,0.305,0.3,0.526,0.34l5.591,1.03c0.447,0.083,0.873-0.212,0.955-0.658
		C230.959,357.606,230.665,357.181,230.218,357.099"/>
	<path clip-path="url(#SVGID_2_)" fill="#9FA0A0" d="M353.216,379.756l-5.591-1.03c-0.446-0.083-0.873,0.212-0.954,0.658
		c-0.041,0.224,0.01,0.441,0.131,0.615c0.118,0.171,0.304,0.298,0.526,0.339l5.59,1.03c0.444,0.083,0.874-0.211,0.955-0.657
		C353.954,380.265,353.659,379.839,353.216,379.756"/>
	<path clip-path="url(#SVGID_2_)" fill="#9FA0A0" d="M274.945,365.338l-5.592-1.031c-0.444-0.081-0.874,0.213-0.955,0.658
		c-0.041,0.224,0.014,0.442,0.133,0.615c0.12,0.173,0.305,0.3,0.527,0.341l5.588,1.03c0.447,0.081,0.873-0.213,0.957-0.659
		C275.686,365.846,275.39,365.421,274.945,365.338"/>
	<path clip-path="url(#SVGID_2_)" fill="#9FA0A0" d="M241.399,359.159l-5.591-1.03c-0.445-0.081-0.873,0.213-0.954,0.659
		c-0.042,0.222,0.013,0.44,0.13,0.614c0.121,0.172,0.308,0.299,0.527,0.34l5.591,1.028c0.446,0.083,0.872-0.212,0.954-0.657
		C242.143,359.667,241.845,359.24,241.399,359.159"/>
	<path clip-path="url(#SVGID_2_)" fill="#9FA0A0" d="M252.58,361.217l-5.588-1.029c-0.445-0.083-0.875,0.212-0.957,0.658
		c-0.041,0.223,0.014,0.441,0.132,0.614c0.121,0.173,0.306,0.3,0.526,0.341l5.592,1.029c0.445,0.083,0.871-0.211,0.955-0.658
		C253.323,361.727,253.027,361.3,252.58,361.217"/>
	<path clip-path="url(#SVGID_2_)" fill="#9FA0A0" d="M297.311,369.457l-5.591-1.029c-0.447-0.083-0.873,0.213-0.958,0.656
		c-0.041,0.225,0.013,0.443,0.132,0.616c0.121,0.174,0.306,0.3,0.525,0.34l5.591,1.03c0.447,0.083,0.877-0.211,0.959-0.657
		C298.049,369.965,297.753,369.54,297.311,369.457"/>
	<path clip-path="url(#SVGID_2_)" fill="#9FA0A0" d="M286.124,367.397l-5.586-1.03c-0.447-0.083-0.875,0.211-0.957,0.658
		c-0.041,0.224,0.012,0.441,0.132,0.616c0.119,0.171,0.304,0.298,0.525,0.339l5.589,1.031c0.447,0.081,0.875-0.214,0.957-0.658
		C286.867,367.905,286.571,367.48,286.124,367.397"/>
	<path clip-path="url(#SVGID_2_)" fill="#9FA0A0" d="M100.677,334.068c-0.041,0.224,0.012,0.443,0.13,0.615
		c0.121,0.173,0.306,0.301,0.528,0.34l0.165,0.03v-1.64C101.106,333.406,100.75,333.669,100.677,334.068"/>
</g>
<g>
	<defs>
		<rect id="SVGID_3_" width="1190.55" height="841.89"/>
	</defs>
	<clipPath id="SVGID_4_">
		<use xlink:href="#SVGID_3_"  overflow="visible"/>
	</clipPath>
	<path clip-path="url(#SVGID_4_)" fill="#AFAFB0" d="M704.096,425.643c-0.85-18.186-7.986-35.681-20.096-49.262
		c-15.125-16.964-36.824-26.694-59.535-26.694c-1.229,0-2.471,0.028-3.699,0.086c-24.365,1.142-46.551,13.16-60.87,32.974
		c-10.663,14.756-15.849,32.17-14.997,50.36c0.282,5.975,1.252,11.964,2.886,17.801c6.479,23.157,23.602,42.566,45.802,51.924
		c9.798,4.131,20.181,6.227,30.858,6.227c1.279,0,2.553-0.029,3.783-0.086c12.221-0.57,23.838-3.83,34.529-9.689
		c21.133-11.584,36.184-32.645,40.26-56.334C704.006,437.202,704.369,431.377,704.096,425.643 M624.545,370.086
		c16.846,0,32.967,7.243,44.227,19.871c9.006,10.102,14.314,23.114,14.949,36.639c0.199,4.266-0.072,8.604-0.807,12.891
		c-3.033,17.62-14.232,33.285-29.959,41.904c-7.945,4.352-16.586,6.775-25.68,7.203c-8.896,0.416-17.615-1.129-25.764-4.562
		c-16.521-6.965-29.261-21.404-34.081-38.625c-1.22-4.361-1.944-8.82-2.152-13.254c-0.633-13.528,3.224-26.482,11.155-37.459
		c10.656-14.747,27.162-23.691,45.283-24.54C622.68,370.108,623.631,370.086,624.545,370.086"/>
	<path clip-path="url(#SVGID_4_)" fill="#ED777A" d="M753.502,405.04l115.924-20.441c-8.971-49.366-32.648-94.803-68.883-131.037
		c-4.717-4.716-9.596-9.209-14.611-13.496l-75.676,90.187C732.232,349.25,747.859,375.397,753.502,405.04"/>
	<path clip-path="url(#SVGID_4_)" fill="#ED777A" d="M707.439,327.894l75.682-90.193c-44.082-36.572-98.904-56.641-156.84-57.058
		v117.66C657.02,298.727,685.24,309.754,707.439,327.894"/>
	<path clip-path="url(#SVGID_4_)" fill="#ED777A" d="M755.826,429.661c0,23.253-6.082,45.109-16.725,64.078l102.02,58.901
		c21.119-37.071,32.363-79.161,32.363-122.979c0-14.029-1.166-27.877-3.424-41.443l-115.922,20.44
		C755.244,415.499,755.826,422.512,755.826,429.661"/>
	<path clip-path="url(#SVGID_4_)" fill="#ED777A" d="M671.098,552.473l40.285,110.682c33.096-12.305,63.447-31.684,89.16-57.396
		c15.164-15.164,28.117-31.945,38.729-49.945l-102.01-58.896C722.174,522.129,698.883,541.885,671.098,552.473"/>
	<path clip-path="url(#SVGID_4_)" fill="#ED777A" d="M624.443,562.657c-15.129,0-29.667-2.58-43.204-7.307l-40.286,110.684
		c26.45,9.387,54.594,14.281,83.49,14.281c28.898,0,57.041-4.895,83.49-14.279L667.648,555.35
		C654.111,560.077,639.574,562.657,624.443,562.657"/>
	<path clip-path="url(#SVGID_4_)" fill="#898989" d="M745.793,410.129c-0.195-1.212-0.408-2.417-0.639-3.618
		c-5.289-27.642-19.859-52.029-40.344-69.769c-0.926-0.802-1.867-1.585-2.816-2.359c-20.725-16.901-47.045-27.184-75.713-27.606
		v34.321c20.281,0.415,38.906,7.679,53.658,19.569c0.953,0.769,1.893,1.555,2.812,2.362c14.438,12.649,24.74,29.901,28.598,49.443
		c0.236,1.198,0.453,2.403,0.641,3.617c0.684,4.425,1.039,8.958,1.039,13.571c0,15.465-3.988,30.016-10.982,42.684
		c-0.594,1.072-1.203,2.135-1.84,3.181c-10.078,16.585-25.447,29.614-43.746,36.731c-1.141,0.443-2.289,0.865-3.451,1.262
		c-8.967,3.062-18.574,4.727-28.564,4.727c-9.992,0-19.602-1.664-28.568-4.727c-1.161-0.398-2.311-0.82-3.45-1.264
		c-18.299-7.117-33.669-20.146-43.746-36.732c-0.635-1.045-1.245-2.105-1.838-3.18c-6.995-12.668-10.983-27.217-10.983-42.682
		c0-4.614,0.355-9.146,1.039-13.572l-33.802-5.96c-1.021,6.363-1.558,12.886-1.558,19.532c0,21.711,5.666,42.119,15.586,59.84
		c0.598,1.068,1.21,2.129,1.839,3.18c14.096,23.502,35.819,41.927,61.724,51.828c1.142,0.438,2.292,0.859,3.45,1.262
		c12.634,4.398,26.194,6.797,40.307,6.797c14.111,0,27.672-2.398,40.305-6.797c1.158-0.402,2.307-0.824,3.449-1.26
		c25.906-9.901,47.629-28.326,61.725-51.83c0.629-1.049,1.242-2.109,1.84-3.178c9.922-17.721,15.588-38.131,15.588-59.842
		C747.352,423.014,746.812,416.493,745.793,410.129"/>
	<path clip-path="url(#SVGID_4_)" fill="#6F6E6F" d="M546.896,334.383c-0.949,0.774-1.891,1.557-2.816,2.359
		c-20.484,17.74-35.055,42.127-40.345,69.768l33.805,5.961c3.858-19.541,14.161-36.793,28.597-49.442
		c0.921-0.807,1.86-1.593,2.814-2.362c14.752-11.889,33.377-19.154,53.657-19.569v-34.321
		C593.94,307.199,567.622,317.482,546.896,334.383"/>
	<path clip-path="url(#SVGID_4_)" fill="#FCC800" d="M411.94,555.045l-10.883,6.283c30.174,51.125,77.37,91.006,133.806,111.821
		l4.298-11.812C485.516,641.54,440.646,603.635,411.94,555.045"/>
	<path clip-path="url(#SVGID_4_)" fill="#FEE3A3" d="M511.891,497.338l-92.058,53.15c27.485,46.486,70.336,82.801,121.571,101.951
		l36.384-99.967C550.162,541.943,526.985,522.346,511.891,497.338"/>
	<path clip-path="url(#SVGID_4_)" fill="#5869B0" d="M460.574,236.997l-7.374-8.788c-45.48,38.699-77.694,92.517-88.855,153.69
		l11.3,1.993C386.331,325.43,417.116,273.997,460.574,236.997"/>
	<path clip-path="url(#SVGID_4_)" fill="#74C8EF" d="M538.634,330.253l-71.753-85.513c-41.64,35.514-71.139,84.834-81.401,140.886
		l109.914,19.38C501.043,375.378,516.666,349.243,538.634,330.253"/>
	<path clip-path="url(#SVGID_4_)" fill="#9E4093" d="M622.607,160.627V148.16c-67.179,0.449-128.745,24.665-176.8,64.728
		l7.965,9.551C499.672,184.195,558.461,161.076,622.607,160.627"/>
	<path clip-path="url(#SVGID_4_)" fill="#3E8838" d="M353.479,382.937l-12.344-2.168c-11.512,68.144,1.502,134.735,32.608,190.394
		l10.873-6.41C354.928,511.594,342.504,448.008,353.479,382.937"/>
	<path clip-path="url(#SVGID_4_)" fill="#E60012" d="M888.9,384.896c-0.201-1.208-0.414-2.414-0.633-3.618
		c-9.643-53.211-35.15-102.188-74.201-141.239c-5.111-5.112-10.402-9.98-15.842-14.623c-0.932-0.796-1.867-1.585-2.809-2.367
		c-47.523-39.466-106.65-61.114-169.133-61.531v11.669c59.707,0.417,116.207,21.102,161.631,58.802
		c0.941,0.781,1.879,1.57,2.811,2.366c5.182,4.426,10.221,9.065,15.092,13.936c37.33,37.332,61.721,84.149,70.955,135.014
		c0.219,1.204,0.432,2.409,0.633,3.618c2.334,13.991,3.537,28.271,3.537,42.739c0,45.15-11.592,88.517-33.357,126.708
		c-0.607,1.062-1.23,2.117-1.852,3.174c-10.936,18.557-24.285,35.857-39.916,51.49c-26.496,26.494-57.775,46.463-91.881,59.133
		c-1.148,0.428-2.295,0.857-3.449,1.268c-27.256,9.678-56.26,14.725-86.041,14.725c-29.782,0-58.787-5.047-86.045-14.727
		l-3.993,10.973c28.52,10.139,58.872,15.424,90.038,15.424c31.164,0,61.516-5.285,90.035-15.422c1.154-0.41,2.301-0.842,3.447-1.268
		c35.689-13.246,68.418-34.133,96.139-61.854c16.363-16.363,30.336-34.477,41.775-53.906c0.62-1.055,1.244-2.108,1.852-3.172
		c22.783-39.949,34.918-85.312,34.918-132.546C892.611,414.507,891.35,399.548,888.9,384.896"/>
	<path clip-path="url(#SVGID_4_)" fill="#B972AC" d="M622.607,180.643v-10.359c-62.116,0.432-119.044,22.683-163.493,59.488
		l82.14,97.891v-0.001l0.195,0.231c22.2-18.139,50.42-29.166,81.158-29.59V180.643z"/>
	<path clip-path="url(#SVGID_4_)" fill="#98CE97" d="M510.027,493.598c-10.588-18.912-16.632-40.711-16.632-63.926
		c0-7.135,0.578-14.133,1.676-20.959l-0.321-0.056l-53.618-9.455l-77.818-13.721c-2.415,14.373-3.691,29.132-3.691,44.191
		c0,47.586,12.56,92.232,34.531,130.824l13.612-7.859l0.001,0.002l102.019-58.902L510.027,493.598z"/>
</g>
<g>
	<defs>
		<rect id="SVGID_5_" width="1190.55" height="841.89"/>
	</defs>
	<clipPath id="SVGID_6_">
		<use xlink:href="#SVGID_5_"  overflow="visible"/>
	</clipPath>
	<path clip-path="url(#SVGID_6_)" fill="#FFFFFF" d="M542.702,377.061l-9.842-6.752l1.095-1.592c0.633-0.925,1.155-1.562,1.565-1.91
		c0.572-0.499,1.194-0.784,1.864-0.852c0.669-0.067,1.292,0.096,1.868,0.491c0.372,0.257,0.657,0.57,0.852,0.945
		c0.194,0.373,0.299,0.834,0.312,1.386c0.704-0.423,1.363-0.634,1.98-0.629c0.617,0.006,1.214,0.205,1.788,0.601
		c0.554,0.377,0.956,0.871,1.209,1.477c0.254,0.606,0.334,1.219,0.24,1.839c-0.093,0.618-0.421,1.338-0.983,2.155L542.702,377.061z
		 M535.971,369.606l2.073,1.424l0.291-0.422c0.322-0.471,0.465-0.886,0.43-1.245c-0.035-0.36-0.217-0.653-0.547-0.88
		c-0.308-0.212-0.626-0.27-0.957-0.176c-0.328,0.092-0.645,0.359-0.948,0.803L535.971,369.606z M539.717,372.176l2.523,1.731
		l0.331-0.483c0.55-0.802,0.823-1.409,0.818-1.823c-0.005-0.413-0.196-0.748-0.57-1.005c-0.424-0.291-0.87-0.356-1.34-0.199
		c-0.47,0.16-0.965,0.619-1.487,1.379L539.717,372.176z"/>
	<path clip-path="url(#SVGID_6_)" fill="#FFFFFF" d="M541.516,358.566l1.531-1.813l12.166,4.093l-1.57,1.859l-2.497-0.852
		l-3.237,3.83l1.232,2.349l-1.569,1.857L541.516,358.566z M544.708,359.691l2.064,3.903l2.122-2.51L544.708,359.691z"/>
	<polygon clip-path="url(#SVGID_6_)" fill="#FFFFFF" points="548.997,350.196 550.675,348.653 558.405,352.857 554.891,344.782 
		556.568,343.24 566.16,350.635 564.494,352.167 558.425,347.506 561.6,354.824 560.082,356.218 553.077,352.419 557.184,358.882 
		555.502,360.425 	"/>
	<path clip-path="url(#SVGID_6_)" fill="#FFFFFF" d="M710.35,362.43l-2.332-0.393c0.246-1.53-0.059-2.873-0.916-4.028
		c-0.748-1.007-1.697-1.61-2.85-1.808c-1.154-0.199-2.193,0.046-3.121,0.734c-0.959,0.712-1.512,1.667-1.652,2.868
		c-0.143,1.199,0.168,2.317,0.938,3.352c0.5,0.672,1.059,1.139,1.676,1.397c0.619,0.258,1.324,0.311,2.119,0.16l-2.199-2.963
		l1.777-1.318l3.818,5.146l-0.408,0.324c-0.867,0.646-1.863,1.025-2.988,1.139c-1.123,0.116-2.162-0.044-3.119-0.478
		c-0.957-0.431-1.803-1.146-2.541-2.137c-0.787-1.061-1.266-2.174-1.436-3.339c-0.17-1.163-0.02-2.296,0.449-3.396
		c0.467-1.1,1.184-2.005,2.141-2.717c1.316-0.975,2.791-1.377,4.43-1.204c1.943,0.204,3.545,1.156,4.809,2.858
		c0.662,0.889,1.119,1.84,1.375,2.851C710.533,360.332,710.543,361.316,710.35,362.43"/>
	<polygon clip-path="url(#SVGID_6_)" fill="#FFFFFF" points="713.402,363.519 717.08,369.52 715.1,370.735 713.889,368.756 
		705.32,374.009 704.035,371.913 712.602,366.659 711.422,364.733 	"/>
	<polygon clip-path="url(#SVGID_6_)" fill="#FFFFFF" points="718.193,371.519 721.15,377.105 719.123,378.181 717.291,374.723 
		715.307,375.772 717.141,379.231 715.141,380.29 713.309,376.831 708.389,379.438 707.262,377.31 	"/>
	<path clip-path="url(#SVGID_6_)" fill="#FFFFFF" d="M574.062,390.709l-1.303,2.022c-1.965-0.52-3.232-0.762-3.794-0.725
		c-0.564,0.037-1.048,0.369-1.453,0.997c-0.17,0.264-0.33,0.519-0.48,0.763c1.181,0.761,2.386,1.508,3.616,2.242l-1.224,1.899
		c-1.349-0.952-2.895-1.99-4.636-3.112c-1.672-1.077-3.118-1.967-4.336-2.669l0.76-1.181c0.088-0.136,0.266-0.427,0.532-0.87
		c0.267-0.444,0.518-0.85,0.756-1.22c1.346-2.089,2.741-2.669,4.183-1.74c1.145,0.737,1.557,1.847,1.24,3.33l0.102,0.067
		c0.425-0.377,1.047-0.547,1.864-0.51C570.709,390.041,572.099,390.275,574.062,390.709 M566.072,389.186
		c-0.914-0.589-1.746-0.3-2.497,0.865c-0.276,0.428-0.486,0.826-0.634,1.196c0.744,0.409,1.689,0.981,2.832,1.718
		c0.171-0.244,0.313-0.453,0.423-0.626C567.13,390.891,567.089,389.839,566.072,389.186"/>
	<path clip-path="url(#SVGID_6_)" fill="#FFFFFF" d="M575.855,381.426c0.211,0.183,0.473,0.432,0.793,0.749l-3.351,4.019
		c0.517,0.347,1.077,0.484,1.681,0.412c0.603-0.073,1.146-0.386,1.623-0.939c0.531-0.615,1.002-1.35,1.415-2.203l1.097,1.162
		c-0.282,0.744-0.783,1.535-1.505,2.371c-0.913,1.058-1.913,1.61-3,1.656c-1.085,0.046-2.052-0.295-2.896-1.024
		c-0.881-0.761-1.414-1.688-1.599-2.782c-0.186-1.094,0.131-2.116,0.953-3.068c0.751-0.869,1.546-1.31,2.386-1.321
		C574.292,380.447,575.092,380.769,575.855,381.426 M574.555,382.817c-0.951-0.822-1.773-0.83-2.466-0.027
		c-0.662,0.767-0.563,1.648,0.298,2.641L574.555,382.817z"/>
	<path clip-path="url(#SVGID_6_)" fill="#FFFFFF" d="M576.398,371.476l0.777,1.27c-0.278,0.153-0.537,0.34-0.775,0.561
		c-0.285,0.266-0.36,0.58-0.222,0.944c0.139,0.364,0.56,0.927,1.265,1.688c0.354-0.327,0.826-0.794,1.415-1.4l1.061,1.241
		c-0.641,0.55-1.123,0.974-1.445,1.272c1.401,1.511,2.82,2.984,4.256,4.415l-1.573,1.458c-1.3-1.523-2.658-3.05-4.077-4.581
		c-0.235,0.217-0.571,0.551-1.01,1.002l-1.055-1.235c0.446-0.362,0.791-0.655,1.033-0.88c-1.868-2.016-2.13-3.647-0.788-4.891
		C575.662,371.967,576.041,371.681,576.398,371.476"/>
	<path clip-path="url(#SVGID_6_)" fill="#FFFFFF" d="M587.996,371.315c0.166,0.226,0.368,0.527,0.608,0.907l-4.16,3.175
		c0.426,0.452,0.943,0.71,1.548,0.774c0.605,0.063,1.202-0.121,1.79-0.555c0.656-0.482,1.279-1.092,1.87-1.833l0.812,1.377
		c-0.441,0.663-1.106,1.322-1.996,1.976c-1.125,0.829-2.223,1.144-3.292,0.948c-1.07-0.197-1.936-0.744-2.597-1.642
		c-0.689-0.938-1.002-1.961-0.94-3.069c0.062-1.108,0.598-2.033,1.611-2.779c0.926-0.68,1.798-0.932,2.621-0.756
		C586.692,370.012,587.401,370.506,587.996,371.315 M586.423,372.383c-0.746-1.013-1.546-1.205-2.4-0.575
		c-0.817,0.6-0.915,1.48-0.297,2.64L586.423,372.383z"/>
	<path clip-path="url(#SVGID_6_)" fill="#FFFFFF" d="M592.937,364.931l0.541,1.9c-0.43,0.056-0.822,0.186-1.181,0.39
		c-0.69,0.394-0.968,0.968-0.832,1.721c1.08,1.894,1.926,3.343,2.536,4.348l-1.877,1.071c-0.736-1.475-1.362-2.665-1.878-3.573
		c-0.645-1.129-1.373-2.132-2.185-3.01l1.686-1.226c0.377,0.477,0.593,0.761,0.644,0.851l0.112-0.065
		c0.051-0.916,0.437-1.579,1.157-1.99C591.999,365.155,592.424,365.016,592.937,364.931"/>
	<path clip-path="url(#SVGID_6_)" fill="#FFFFFF" d="M602.467,364.063c0.107,0.257,0.234,0.598,0.379,1.024l-4.781,2.123
		c0.31,0.539,0.752,0.91,1.326,1.112c0.574,0.202,1.197,0.161,1.871-0.125c0.748-0.316,1.494-0.767,2.242-1.351l0.471,1.529
		c-0.582,0.543-1.381,1.03-2.398,1.461c-1.287,0.545-2.428,0.598-3.422,0.158c-0.996-0.439-1.711-1.172-2.145-2.198
		c-0.455-1.072-0.523-2.14-0.206-3.203c0.317-1.064,1.054-1.84,2.212-2.331c1.057-0.447,1.965-0.49,2.723-0.129
		C601.497,362.494,602.074,363.137,602.467,364.063 M600.686,364.737c-0.488-1.157-1.223-1.529-2.201-1.115
		c-0.932,0.395-1.232,1.228-0.898,2.5L600.686,364.737z"/>
	<path clip-path="url(#SVGID_6_)" fill="#FFFFFF" d="M612.814,366.042l-2.086,0.557c-0.242-1.367-0.545-2.734-0.91-4.101
		c-0.223-0.83-0.492-1.36-0.814-1.59c-0.322-0.231-0.732-0.281-1.23-0.148c-0.596,0.159-1.105,0.516-1.529,1.071
		c0.576,2.052,1.084,3.905,1.523,5.557l-2.111,0.564c-0.348-1.678-0.646-2.99-0.896-3.935c-0.338-1.262-0.783-2.418-1.34-3.47
		l1.951-0.757l0.357,0.803l0.125-0.033c0.551-0.814,1.291-1.346,2.225-1.595c0.805-0.215,1.502-0.195,2.088,0.058
		c0.586,0.255,1.016,0.896,1.291,1.926c0.041,0.153,0.088,0.36,0.145,0.619c0.055,0.26,0.119,0.524,0.189,0.794
		C611.982,363.075,612.324,364.301,612.814,366.042"/>
	<path clip-path="url(#SVGID_6_)" fill="#FFFFFF" d="M620.555,363.251l0.061,1.571c-0.455,0.322-1.104,0.536-1.941,0.643
		c-1.385,0.177-2.5-0.078-3.344-0.763c-0.844-0.686-1.336-1.576-1.475-2.672c-0.146-1.138,0.117-2.181,0.789-3.129
		c0.67-0.948,1.684-1.508,3.037-1.681c0.66-0.084,1.258-0.082,1.793,0.003l-0.062,1.694c-0.52-0.143-1.086-0.175-1.699-0.098
		c-0.65,0.083-1.135,0.38-1.451,0.891c-0.316,0.513-0.432,1.107-0.346,1.785c0.094,0.737,0.396,1.333,0.906,1.785
		c0.512,0.453,1.176,0.627,1.992,0.523C619.293,363.744,619.873,363.559,620.555,363.251"/>
	<path clip-path="url(#SVGID_6_)" fill="#FFFFFF" d="M629.143,360.166c0,0.278-0.018,0.642-0.051,1.09l-5.232,0.076
		c0.074,0.618,0.336,1.133,0.783,1.544c0.449,0.411,1.039,0.618,1.77,0.62c0.812,0.001,1.676-0.119,2.594-0.363l-0.166,1.591
		c-0.748,0.271-1.676,0.405-2.781,0.402c-1.396-0.004-2.467-0.402-3.209-1.197c-0.742-0.794-1.113-1.75-1.109-2.864
		c0.002-1.164,0.357-2.173,1.068-3.026c0.709-0.853,1.691-1.279,2.947-1.276c1.148,0.003,2,0.32,2.557,0.95
		S629.145,359.16,629.143,360.166 M627.242,360.087c0.002-1.257-0.525-1.887-1.588-1.89c-1.012-0.002-1.615,0.647-1.809,1.947
		L627.242,360.087z"/>
	<path clip-path="url(#SVGID_6_)" fill="#FFFFFF" d="M648.428,359.69l-0.576,1.424c-0.814-0.224-1.355-0.245-1.625-0.064
		l-0.029,0.103c0.199,0.48,0.232,0.965,0.098,1.455c-0.205,0.754-0.658,1.321-1.355,1.702c-0.697,0.381-1.592,0.422-2.683,0.122
		c-0.532-0.146-0.958-0.308-1.272-0.485c-0.312,0.05-0.496,0.178-0.553,0.384c-0.088,0.322,0.016,0.592,0.311,0.812
		c0.299,0.221,1.051,0.497,2.264,0.83c2.094,0.574,2.943,1.581,2.549,3.02c-0.277,1.012-0.934,1.696-1.971,2.052
		c-1.035,0.357-2.178,0.363-3.424,0.02c-2.445-0.67-3.455-1.78-3.029-3.33c0.131-0.479,0.381-0.849,0.746-1.108
		c0.365-0.26,0.738-0.377,1.119-0.352l0.033-0.118c-0.361-0.4-0.465-0.888-0.307-1.461c0.158-0.58,0.592-0.983,1.301-1.208
		l0.029-0.111c-0.729-0.659-0.969-1.442-0.721-2.348c0.213-0.775,0.684-1.343,1.408-1.706c0.725-0.362,1.697-0.375,2.914-0.042
		c0.83,0.228,1.461,0.571,1.891,1.03l0.109,0.03c0.424-0.955,1.068-1.314,1.93-1.077
		C647.924,359.357,648.205,359.499,648.428,359.69 M643.459,369.048c0.107-0.39,0.035-0.713-0.211-0.968
		c-0.246-0.254-0.73-0.481-1.451-0.678c-0.586-0.161-1.168-0.35-1.748-0.565c-0.537,0.147-0.879,0.493-1.027,1.036
		c-0.277,1.011,0.252,1.702,1.59,2.068c0.746,0.205,1.375,0.224,1.889,0.059C643.01,369.833,643.33,369.517,643.459,369.048
		 M644.32,362.288c0.129-0.475,0.078-0.877-0.156-1.208c-0.236-0.331-0.549-0.55-0.941-0.658c-0.391-0.107-0.768-0.082-1.129,0.077
		c-0.361,0.16-0.605,0.471-0.732,0.934c-0.129,0.469-0.074,0.867,0.162,1.192c0.236,0.326,0.555,0.544,0.959,0.654
		c0.379,0.104,0.75,0.08,1.109-0.073C643.951,363.052,644.193,362.746,644.32,362.288"/>
	<path clip-path="url(#SVGID_6_)" fill="#FFFFFF" d="M655.434,367.209c-0.111,0.256-0.271,0.583-0.48,0.981l-4.832-2.006
		c-0.178,0.595-0.141,1.172,0.107,1.727c0.248,0.555,0.707,0.979,1.377,1.271c0.746,0.325,1.586,0.556,2.523,0.696l-0.781,1.394
		c-0.795-0.048-1.699-0.292-2.713-0.734c-1.281-0.557-2.105-1.349-2.471-2.373c-0.367-1.023-0.328-2.047,0.119-3.068
		c0.463-1.068,1.189-1.853,2.18-2.355s2.061-0.502,3.213,0c1.053,0.458,1.709,1.087,1.969,1.886
		C655.906,365.427,655.836,366.287,655.434,367.209 M653.721,366.383c0.502-1.152,0.266-1.94-0.707-2.365
		c-0.928-0.405-1.74-0.048-2.434,1.069L653.721,366.383z"/>
	<path clip-path="url(#SVGID_6_)" fill="#FFFFFF" d="M661.105,376.098l-1.838-1.136c0.828-1.114,1.615-2.273,2.359-3.477
		c0.451-0.729,0.65-1.291,0.598-1.684c-0.055-0.392-0.299-0.724-0.736-0.995c-0.525-0.325-1.135-0.451-1.83-0.378
		c-1.098,1.827-2.096,3.468-2.994,4.923l-1.859-1.149c0.982-1.404,1.73-2.522,2.244-3.354c0.688-1.111,1.223-2.229,1.607-3.354
		l1.889,0.898l-0.34,0.812l0.111,0.068c0.971-0.158,1.865,0.016,2.686,0.523c0.709,0.438,1.172,0.958,1.391,1.559
		c0.217,0.6,0.047,1.354-0.514,2.26c-0.084,0.135-0.201,0.312-0.352,0.53c-0.15,0.218-0.299,0.447-0.447,0.683
		C662.691,373.455,662.035,374.545,661.105,376.098"/>
	<path clip-path="url(#SVGID_6_)" fill="#FFFFFF" d="M671.197,379.108c-0.889,1.052-1.904,1.604-3.047,1.655
		c-1.141,0.051-2.146-0.29-3.016-1.024c-0.828-0.699-1.309-1.569-1.443-2.609c-0.135-1.041,0.213-2.051,1.041-3.033
		c0.891-1.055,1.914-1.61,3.062-1.662c1.15-0.051,2.16,0.289,3.029,1.024c0.822,0.695,1.299,1.565,1.428,2.607
		C672.381,377.109,672.029,378.123,671.197,379.108 M669.418,377.928c0.512-0.605,0.801-1.232,0.867-1.881s-0.125-1.164-0.578-1.545
		c-0.438-0.37-0.957-0.48-1.557-0.328c-0.6,0.151-1.143,0.516-1.629,1.091c-0.512,0.606-0.801,1.233-0.865,1.882
		c-0.068,0.649,0.125,1.164,0.576,1.545c0.438,0.37,0.957,0.48,1.557,0.328C668.389,378.868,668.934,378.505,669.418,377.928"/>
	<path clip-path="url(#SVGID_6_)" fill="#FFFFFF" d="M677.328,392.391l-1.369-1.662c1.141-0.791,2.213-1.602,3.223-2.432
		c0.754-0.622,1.17-1.125,1.242-1.509c0.074-0.383-0.062-0.786-0.41-1.208c-0.279-0.338-0.699-0.593-1.256-0.765
		c-0.543,0.418-1.021,0.799-1.438,1.143c-0.705,0.58-1.746,1.458-3.121,2.633l-1.385-1.68c1.232-0.861,2.395-1.74,3.486-2.641
		c0.564-0.465,0.904-0.876,1.016-1.23c0.111-0.355-0.037-0.779-0.443-1.273c-0.375-0.455-0.84-0.707-1.398-0.754
		c-1.652,1.397-3.137,2.638-4.453,3.722l-1.389-1.687c1.379-1.01,2.445-1.826,3.207-2.452c0.986-0.812,1.854-1.699,2.6-2.657
		l1.5,1.459l-0.584,0.659l0.084,0.101c0.945,0.132,1.699,0.54,2.26,1.221c0.703,0.854,0.947,1.658,0.734,2.415l0.084,0.1
		c1.006,0.209,1.76,0.617,2.26,1.223c0.586,0.711,0.871,1.375,0.859,1.992c-0.012,0.616-0.426,1.261-1.24,1.931
		c-0.078,0.066-0.236,0.187-0.469,0.365c-0.232,0.177-0.389,0.299-0.469,0.366C679.756,390.351,678.711,391.224,677.328,392.391"/>
	<path clip-path="url(#SVGID_6_)" fill="#FFFFFF" d="M685.734,397.75c-0.242,0.138-0.566,0.304-0.971,0.497l-2.67-4.5
		c-0.498,0.371-0.814,0.854-0.947,1.447c-0.135,0.594-0.02,1.208,0.342,1.843c0.402,0.706,0.936,1.396,1.604,2.069l-1.463,0.646
		c-0.605-0.513-1.186-1.251-1.73-2.211c-0.693-1.213-0.879-2.34-0.559-3.38c0.32-1.039,0.965-1.834,1.932-2.387
		c1.012-0.576,2.064-0.77,3.158-0.578c1.092,0.19,1.951,0.831,2.572,1.923c0.568,0.997,0.717,1.894,0.447,2.69
		C687.18,396.604,686.609,397.25,685.734,397.75 M684.857,396.062c1.092-0.623,1.375-1.396,0.85-2.317
		c-0.502-0.881-1.365-1.081-2.588-0.601L684.857,396.062z"/>
</g>
<text transform="matrix(1 0 0 1 756.7529 318.3062)" fill="#FFFFFF" font-family="'HelveticaNeue'" font-size="14">Cytosine </text>
<text transform="matrix(1 0 0 1 747.9326 335.106)" fill="#FFFFFF" font-family="'HelveticaNeue'" font-size="14">methylation </text>
<text transform="matrix(1 0 0 1 735.1094 351.9062)" fill="#FFFFFF" font-family="'HelveticaNeue'" font-size="14">level distribution</text>
<text transform="matrix(1 0 0 1 784.1719 443.6313)" fill="#FFFFFF" font-family="'HelveticaNeue'" font-size="13">Cytosine </text>
<text transform="matrix(1 0 0 1 755.4023 459.231)" fill="#FFFFFF" font-family="'HelveticaNeue'" font-size="13">methylation level of</text>
<text transform="matrix(1 0 0 1 758.2881 474.8315)" fill="#FFFFFF" font-family="'HelveticaNeue'" font-size="13">genomic elements</text>
<text transform="matrix(1 0 0 1 691.5068 556.4966)"><tspan x="0" y="0" fill="#FFFFFF" font-family="'HelveticaNeue'" font-size="14">Ch</tspan><tspan x="17.892" y="0" fill="#FFFFFF" font-family="'HelveticaNeue'" font-size="14">r</tspan><tspan x="22.302" y="0" fill="#FFFFFF" font-family="'HelveticaNeue'" font-size="14">omosome-wide </tspan></text>
<text transform="matrix(1 0 0 1 686.957 573.2964)" fill="#FFFFFF" font-family="'HelveticaNeue'" font-size="14">cytosine methylation </text>
<text transform="matrix(1 0 0 1 696.5605 590.0962)" fill="#FFFFFF" font-family="'HelveticaNeue'" font-size="14">level distributionts</text>
<text transform="matrix(1 0 0 1 584.1548 607.0923)" fill="#FFFFFF" font-family="'HelveticaNeue'" font-size="14">Gene-centric</text>
<text transform="matrix(1 0 0 1 596.7266 623.8921)" fill="#FFFFFF" font-family="'HelveticaNeue'" font-size="14">cytosine </text>
<text transform="matrix(1 0 0 1 572.479 640.6929)" fill="#FFFFFF" font-family="'HelveticaNeue'" font-size="14">methylation level</text>
<text transform="matrix(1 0 0 1 639.0908 242.6724)" fill="#FFFFFF" font-family="'HelveticaNeue'" font-size="14">Global cytosine</text>
<text transform="matrix(1 0 0 1 631.6992 259.4727)" fill="#FFFFFF" font-family="'HelveticaNeue'" font-size="14">methylation levels</text>
<text transform="matrix(1 0 0 1 479.1484 552.6392)"><tspan x="0" y="0" fill="#807F80" font-family="'HelveticaNeue'" font-size="14">C</tspan><tspan x="10.248" y="0" fill="#807F80" font-family="'HelveticaNeue'" font-size="14">y</tspan><tspan x="17.374" y="0" fill="#807F80" font-family="'HelveticaNeue'" font-size="14">to</tspan><tspan x="30.099" y="0" fill="#807F80" font-family="'HelveticaNeue'" font-size="14">s</tspan><tspan x="37.225" y="0" fill="#807F80" font-family="'HelveticaNeue'" font-size="14">ine</tspan><tspan x="56.055" y="0" fill="#807F80" font-family="'HelveticaNeue'" font-size="14"> </tspan></text>
<text transform="matrix(1 0 0 1 470.1045 569.439)"><tspan x="0" y="0" fill="#807F80" font-family="'HelveticaNeue'" font-size="14">m</tspan><tspan x="12.068" y="0" fill="#807F80" font-family="'HelveticaNeue'" font-size="14">et</tspan><tspan x="24.275" y="0" fill="#807F80" font-family="'HelveticaNeue'" font-size="14">h</tspan><tspan x="32.186" y="0" fill="#807F80" font-family="'HelveticaNeue'" font-size="14">ylation</tspan><tspan x="74.129" y="0" fill="#807F80" font-family="'HelveticaNeue'" font-size="14"> </tspan></text>
<text transform="matrix(1 0 0 1 463.2446 586.2388)"><tspan x="0" y="0" fill="#807F80" font-family="'HelveticaNeue'" font-size="14">level</tspan><tspan x="28.951" y="0" fill="#807F80" font-family="'HelveticaNeue'" font-size="14"> </tspan><tspan x="32.969" y="0" fill="#807F80" font-family="'HelveticaNeue'" font-size="14">of TFB</tspan><tspan x="75.542" y="0" fill="#807F80" font-family="'HelveticaNeue'" font-size="14">S</tspan><tspan x="84.74" y="0" fill="#807F80" font-family="'HelveticaNeue'" font-size="14">s</tspan></text>
<text transform="matrix(1 0 0 1 393.3662 459.3315)" fill="#FFFFFF" font-family="'HelveticaNeue'" font-size="15">Coverage </text>
<text transform="matrix(1 0 0 1 390.3062 477.3315)" fill="#FFFFFF" font-family="'HelveticaNeue'" font-size="15">distribution</text>
<text transform="matrix(1 0 0 1 417.5176 344.7876)" fill="#FFFFFF" font-family="'HelveticaNeue'" font-size="17">SNP calling</text>
<text transform="matrix(1 0 0 1 504.7788 249.0947)" fill="#FFFFFF" font-family="'HelveticaNeue'" font-size="17">CNV calling</text>
<text transform="matrix(0.9275 0.3739 -0.375 0.9302 582.0757 531.6304)" fill="#FFFFFF" font-family="'AdobeMingStd-Light-B5pc-H'" font-size="16.9504"> </text>
<text transform="matrix(0.943 0.3327 -0.3337 0.9458 586.313 533.3745)" fill="#FFFFFF" font-family="'CenturyGothic'" font-size="16.9505"> </text>
<text transform="matrix(0.9687 0.2482 -0.2489 0.9715 591.2222 535.2446)" fill="#FFFFFF" font-family="'CenturyGothic-Bold'" font-size="16.9505">C</text>
<text transform="matrix(0.9934 0.1143 -0.1147 0.9963 605.0771 538.771)" fill="#FFFFFF" font-family="'CenturyGothic-Bold'" font-size="16.9505">G</text>
<text transform="matrix(0.9994 -0.0351 0.0353 1.0023 620.4326 540.5327)" fill="#FFFFFF" font-family="'CenturyGothic-Bold'" font-size="16.9505">m</text>
<text transform="matrix(0.9877 -0.1565 0.157 0.9906 637.1328 539.6069)" fill="#FFFFFF" font-family="'CenturyGothic-Bold'" font-size="16.9504">a</text>
<text transform="matrix(0.9623 -0.272 0.2728 0.9651 649.1523 537.7319)" fill="#FFFFFF" font-family="'CenturyGothic-Bold'" font-size="16.9504">p</text>
<text transform="matrix(1.0298 0 0 1 802.5283 83.1274)" font-family="'Helvetica-Light'" font-size="27">EPIGENETIC PROFILING</text>
<text transform="matrix(1.0298 0 0 1 140.0542 83.1274)" font-family="'Helvetica-Light'" font-size="27">GENETIC PROFILING</text>
<text transform="matrix(1 0 0 1 1029.5527 710.6274)" font-family="'HelveticaNeue'" font-size="16.2908">INPUT</text>
<g>
	<defs>
		<rect id="SVGID_7_" width="1190.55" height="841.89"/>
	</defs>
	<clipPath id="SVGID_8_">
		<use xlink:href="#SVGID_7_"  overflow="visible"/>
	</clipPath>
	
		<rect x="1030.889" y="698.996" clip-path="url(#SVGID_8_)" fill="none" stroke="#FFFFFF" stroke-width="0.075" stroke-miterlimit="10" width="1.549" height="11.632"/>
	<polygon clip-path="url(#SVGID_8_)" fill="none" stroke="#FFFFFF" stroke-width="0.075" stroke-miterlimit="10" points="
		1036.671,698.996 1042.797,708.428 1042.829,708.428 1042.829,698.996 1044.295,698.996 1044.295,710.627 1042.602,710.627 
		1036.524,701.292 1036.492,701.292 1036.492,710.627 1035.024,710.627 1035.024,698.996 	"/>
	<path clip-path="url(#SVGID_8_)" fill="none" stroke="#FFFFFF" stroke-width="0.075" stroke-miterlimit="10" d="M1051.902,698.996
		c1.174,0,2.062,0.302,2.664,0.904c0.603,0.604,0.904,1.447,0.904,2.533s-0.302,1.934-0.904,2.541
		c-0.603,0.608-1.49,0.907-2.664,0.896h-3.551v4.758h-1.548v-11.633H1051.902z M1051.382,704.567
		c0.88,0.012,1.522-0.168,1.931-0.537c0.407-0.369,0.61-0.9,0.61-1.597c0-0.695-0.203-1.225-0.61-1.588
		c-0.408-0.364-1.051-0.546-1.931-0.546h-3.03v4.268H1051.382z"/>
	<path clip-path="url(#SVGID_8_)" fill="none" stroke="#FFFFFF" stroke-width="0.075" stroke-miterlimit="10" d="M1065.457,709.772
		c-0.793,0.744-1.922,1.116-3.389,1.116c-1.499,0-2.67-0.355-3.511-1.067c-0.842-0.711-1.263-1.843-1.263-3.396v-7.429h1.548v7.429
		c0,1.043,0.277,1.833,0.831,2.37c0.555,0.538,1.353,0.807,2.395,0.807c0.988,0,1.74-0.269,2.257-0.807
		c0.516-0.537,0.773-1.327,0.773-2.37v-7.429h1.548v7.429C1066.646,707.913,1066.25,709.029,1065.457,709.772z"/>
	<polygon clip-path="url(#SVGID_8_)" fill="none" stroke="#FFFFFF" stroke-width="0.075" stroke-miterlimit="10" points="
		1067.884,700.299 1067.884,698.996 1077.187,698.996 1077.187,700.299 1073.309,700.299 1073.309,710.627 1071.762,710.627 
		1071.762,700.299 	"/>
</g>
<text transform="matrix(1 0 0 1 1029.5527 737.2417)" font-family="'HelveticaNeue'" font-size="13.0479">INDIVIDUAL</text>
<g>
	<defs>
		<rect id="SVGID_9_" width="1190.55" height="841.89"/>
	</defs>
	<clipPath id="SVGID_10_">
		<use xlink:href="#SVGID_9_"  overflow="visible"/>
	</clipPath>
	
		<rect x="1030.623" y="727.926" clip-path="url(#SVGID_10_)" fill="none" stroke="#FFFFFF" stroke-width="0.075" stroke-miterlimit="10" width="1.239" height="9.315"/>
	<polygon clip-path="url(#SVGID_10_)" fill="none" stroke="#FFFFFF" stroke-width="0.075" stroke-miterlimit="10" points="
		1035.254,727.925 1040.16,735.48 1040.187,735.48 1040.187,727.925 1041.359,727.925 1041.359,737.242 1040.004,737.242 
		1035.137,729.765 1035.109,729.765 1035.109,737.242 1033.937,737.242 1033.937,727.925 	"/>
	<path clip-path="url(#SVGID_10_)" fill="none" stroke="#FFFFFF" stroke-width="0.075" stroke-miterlimit="10" d="M1046.566,727.925
		c1.435,0,2.539,0.365,3.313,1.097c0.774,0.73,1.161,1.844,1.161,3.34c0,0.783-0.087,1.477-0.262,2.081
		c-0.173,0.604-0.442,1.113-0.808,1.525c-0.365,0.414-0.831,0.729-1.396,0.947s-1.235,0.326-2.009,0.326h-3.197v-9.316H1046.566z
		 M1046.671,736.198c0.139,0,0.312-0.011,0.521-0.032s0.432-0.074,0.666-0.157c0.235-0.082,0.468-0.202,0.698-0.358
		s0.438-0.37,0.62-0.639c0.184-0.271,0.333-0.607,0.45-1.012s0.176-0.894,0.176-1.468c0-0.557-0.055-1.055-0.163-1.494
		c-0.109-0.439-0.287-0.813-0.535-1.122s-0.567-0.544-0.959-0.705c-0.392-0.16-0.874-0.242-1.449-0.242h-2.088v7.229H1046.671z"/>
	
		<rect x="1052.608" y="727.926" clip-path="url(#SVGID_10_)" fill="none" stroke="#FFFFFF" stroke-width="0.075" stroke-miterlimit="10" width="1.238" height="9.315"/>
	<polygon clip-path="url(#SVGID_10_)" fill="none" stroke="#FFFFFF" stroke-width="0.075" stroke-miterlimit="10" points="
		1058.191,737.242 1054.916,727.925 1056.247,727.925 1058.908,736.002 1058.935,736.002 1061.623,727.925 1062.914,727.925 
		1059.601,737.242 	"/>
	
		<rect x="1063.958" y="727.926" clip-path="url(#SVGID_10_)" fill="none" stroke="#FFFFFF" stroke-width="0.075" stroke-miterlimit="10" width="1.239" height="9.315"/>
	<path clip-path="url(#SVGID_10_)" fill="none" stroke="#FFFFFF" stroke-width="0.075" stroke-miterlimit="10" d="M1070.482,727.925
		c1.434,0,2.538,0.365,3.312,1.097c0.773,0.73,1.161,1.844,1.161,3.34c0,0.783-0.087,1.477-0.261,2.081s-0.443,1.113-0.809,1.525
		c-0.365,0.414-0.831,0.729-1.396,0.947s-1.235,0.326-2.008,0.326h-3.198v-9.316H1070.482z M1070.586,736.198
		c0.139,0,0.312-0.011,0.521-0.032c0.209-0.021,0.431-0.074,0.665-0.157c0.235-0.082,0.468-0.202,0.698-0.358s0.438-0.37,0.62-0.639
		c0.183-0.271,0.333-0.607,0.45-1.012s0.176-0.894,0.176-1.468c0-0.557-0.055-1.055-0.163-1.494s-0.287-0.813-0.535-1.122
		s-0.567-0.544-0.959-0.705c-0.392-0.16-0.874-0.242-1.448-0.242h-2.089v7.229H1070.586z"/>
	<path clip-path="url(#SVGID_10_)" fill="none" stroke="#FFFFFF" stroke-width="0.075" stroke-miterlimit="10" d="M1082.955,736.557
		c-0.636,0.596-1.54,0.894-2.715,0.894c-1.2,0-2.139-0.285-2.812-0.854c-0.674-0.57-1.011-1.476-1.011-2.721v-5.95h1.239v5.95
		c0,0.835,0.222,1.468,0.665,1.898c0.444,0.431,1.083,0.646,1.918,0.646c0.792,0,1.395-0.215,1.808-0.646s0.62-1.063,0.62-1.898
		v-5.95h1.239v5.95C1083.907,735.067,1083.59,735.961,1082.955,736.557z"/>
	<path clip-path="url(#SVGID_10_)" fill="none" stroke="#FFFFFF" stroke-width="0.075" stroke-miterlimit="10" d="M1089.791,727.925
		l3.641,9.316h-1.37l-1.018-2.806h-3.94l-1.044,2.806h-1.266l3.627-9.316H1089.791z M1090.652,733.392l-1.553-4.345h-0.026
		l-1.578,4.345H1090.652z"/>
	<polygon clip-path="url(#SVGID_10_)" fill="none" stroke="#FFFFFF" stroke-width="0.075" stroke-miterlimit="10" points="
		1095.584,727.925 1095.584,736.198 1100.517,736.198 1100.517,737.242 1094.345,737.242 1094.345,727.925 	"/>
</g>
<text transform="matrix(1 0 0 1 1029.5527 749.7124)"><tspan x="0" y="0" font-family="'HelveticaNeue'" font-size="13.0479">ANA</tspan><tspan x="26.33" y="0" font-family="'HelveticaNeue'" font-size="13.0479" letter-spacing="-1">L</tspan><tspan x="32.137" y="0" font-family="'HelveticaNeue'" font-size="13.0479">YSIS</tspan></text>
<g>
	<defs>
		<rect id="SVGID_11_" width="1190.55" height="841.89"/>
	</defs>
	<clipPath id="SVGID_12_">
		<use xlink:href="#SVGID_11_"  overflow="visible"/>
	</clipPath>
	<path clip-path="url(#SVGID_12_)" fill="none" stroke="#FFFFFF" stroke-width="0.075" stroke-miterlimit="10" d="M1034.472,740.396
		l3.641,9.316h-1.37l-1.018-2.806h-3.94l-1.044,2.806h-1.266l3.627-9.316H1034.472z M1035.333,745.863l-1.553-4.345h-0.026
		l-1.578,4.345H1035.333z"/>
	<polygon clip-path="url(#SVGID_12_)" fill="none" stroke="#FFFFFF" stroke-width="0.075" stroke-miterlimit="10" points="
		1040.33,740.396 1045.236,747.951 1045.263,747.951 1045.263,740.396 1046.436,740.396 1046.436,749.712 1045.08,749.712 
		1040.213,742.236 1040.186,742.236 1040.186,749.712 1039.013,749.712 1039.013,740.396 	"/>
	<path clip-path="url(#SVGID_12_)" fill="none" stroke="#FFFFFF" stroke-width="0.075" stroke-miterlimit="10" d="M1052.347,740.396
		l3.641,9.316h-1.37l-1.018-2.806h-3.94l-1.044,2.806h-1.266l3.627-9.316H1052.347z M1053.208,745.863l-1.553-4.345h-0.026
		l-1.578,4.345H1053.208z"/>
	<polygon clip-path="url(#SVGID_12_)" fill="none" stroke="#FFFFFF" stroke-width="0.075" stroke-miterlimit="10" points="
		1058.14,740.396 1058.14,748.668 1063.072,748.668 1063.072,749.712 1056.9,749.712 1056.9,740.396 	"/>
	<polygon clip-path="url(#SVGID_12_)" fill="none" stroke="#FFFFFF" stroke-width="0.075" stroke-miterlimit="10" points="
		1066.557,749.712 1065.316,749.712 1065.316,745.903 1061.716,740.396 1063.19,740.396 1065.982,744.833 1068.709,740.396 
		1070.118,740.396 1066.557,745.903 	"/>
	<path clip-path="url(#SVGID_12_)" fill="none" stroke="#FFFFFF" stroke-width="0.075" stroke-miterlimit="10" d="M1075.827,741.668
		c-0.413-0.3-0.942-0.45-1.586-0.45c-0.261,0-0.519,0.026-0.77,0.078c-0.252,0.053-0.477,0.14-0.672,0.261
		c-0.195,0.122-0.353,0.285-0.47,0.489c-0.117,0.205-0.176,0.459-0.176,0.764c0,0.287,0.084,0.52,0.254,0.698
		s0.396,0.324,0.679,0.437c0.282,0.113,0.603,0.207,0.959,0.281c0.356,0.073,0.72,0.154,1.09,0.241
		c0.369,0.087,0.732,0.189,1.089,0.306c0.356,0.118,0.677,0.277,0.959,0.478c0.283,0.2,0.509,0.452,0.679,0.756
		c0.17,0.305,0.255,0.688,0.255,1.148c0,0.496-0.111,0.92-0.333,1.272s-0.507,0.64-0.854,0.861
		c-0.349,0.222-0.737,0.383-1.168,0.482s-0.859,0.15-1.285,0.15c-0.522,0-1.016-0.065-1.481-0.196
		c-0.465-0.13-0.874-0.328-1.228-0.594c-0.351-0.265-0.629-0.604-0.834-1.018c-0.204-0.413-0.307-0.902-0.307-1.468h1.175
		c0,0.392,0.076,0.729,0.229,1.012c0.15,0.281,0.352,0.515,0.6,0.697c0.248,0.184,0.537,0.318,0.868,0.405
		c0.33,0.087,0.67,0.13,1.018,0.13c0.278,0,0.559-0.025,0.842-0.078c0.283-0.052,0.537-0.142,0.763-0.268
		c0.227-0.126,0.409-0.298,0.549-0.516c0.138-0.217,0.208-0.495,0.208-0.835c0-0.321-0.085-0.582-0.254-0.782
		c-0.17-0.2-0.396-0.363-0.679-0.489c-0.283-0.126-0.603-0.229-0.959-0.307c-0.356-0.079-0.72-0.159-1.09-0.242
		c-0.369-0.082-0.732-0.178-1.09-0.286c-0.356-0.109-0.676-0.253-0.958-0.431c-0.283-0.179-0.509-0.409-0.679-0.692
		c-0.17-0.282-0.255-0.637-0.255-1.062c0-0.47,0.096-0.877,0.287-1.221c0.191-0.343,0.446-0.626,0.764-0.848
		s0.678-0.387,1.083-0.496c0.404-0.108,0.819-0.163,1.246-0.163c0.479,0,0.922,0.057,1.331,0.17
		c0.408,0.113,0.768,0.291,1.076,0.535c0.309,0.243,0.552,0.55,0.729,0.92c0.18,0.369,0.277,0.811,0.294,1.324h-1.174
		C1076.481,742.454,1076.24,741.968,1075.827,741.668z"/>
	
		<rect x="1079.67" y="740.396" clip-path="url(#SVGID_12_)" fill="none" stroke="#FFFFFF" stroke-width="0.075" stroke-miterlimit="10" width="1.239" height="9.316"/>
	<path clip-path="url(#SVGID_12_)" fill="none" stroke="#FFFFFF" stroke-width="0.075" stroke-miterlimit="10" d="M1087.661,741.668
		c-0.413-0.3-0.942-0.45-1.586-0.45c-0.261,0-0.519,0.026-0.77,0.078c-0.252,0.053-0.477,0.14-0.672,0.261
		c-0.195,0.122-0.353,0.285-0.47,0.489c-0.117,0.205-0.176,0.459-0.176,0.764c0,0.287,0.084,0.52,0.254,0.698
		s0.396,0.324,0.679,0.437c0.282,0.113,0.603,0.207,0.959,0.281c0.356,0.073,0.72,0.154,1.09,0.241
		c0.369,0.087,0.732,0.189,1.089,0.306c0.356,0.118,0.677,0.277,0.959,0.478c0.283,0.2,0.509,0.452,0.679,0.756
		c0.17,0.305,0.255,0.688,0.255,1.148c0,0.496-0.111,0.92-0.333,1.272s-0.507,0.64-0.854,0.861
		c-0.349,0.222-0.737,0.383-1.168,0.482s-0.859,0.15-1.285,0.15c-0.522,0-1.016-0.065-1.481-0.196
		c-0.465-0.13-0.874-0.328-1.228-0.594c-0.351-0.265-0.629-0.604-0.834-1.018c-0.204-0.413-0.307-0.902-0.307-1.468h1.175
		c0,0.392,0.076,0.729,0.229,1.012c0.15,0.281,0.352,0.515,0.6,0.697c0.248,0.184,0.537,0.318,0.868,0.405
		c0.33,0.087,0.67,0.13,1.018,0.13c0.278,0,0.559-0.025,0.842-0.078c0.283-0.052,0.537-0.142,0.763-0.268
		c0.227-0.126,0.409-0.298,0.549-0.516c0.138-0.217,0.208-0.495,0.208-0.835c0-0.321-0.085-0.582-0.254-0.782
		c-0.17-0.2-0.396-0.363-0.679-0.489c-0.283-0.126-0.603-0.229-0.959-0.307c-0.356-0.079-0.72-0.159-1.09-0.242
		c-0.369-0.082-0.732-0.178-1.09-0.286c-0.356-0.109-0.676-0.253-0.958-0.431c-0.283-0.179-0.509-0.409-0.679-0.692
		c-0.17-0.282-0.255-0.637-0.255-1.062c0-0.47,0.096-0.877,0.287-1.221c0.191-0.343,0.446-0.626,0.764-0.848
		s0.678-0.387,1.083-0.496c0.404-0.108,0.819-0.163,1.246-0.163c0.479,0,0.922,0.057,1.331,0.17
		c0.408,0.113,0.768,0.291,1.076,0.535c0.309,0.243,0.552,0.55,0.729,0.92c0.18,0.369,0.277,0.811,0.294,1.324h-1.174
		C1088.315,742.454,1088.074,741.968,1087.661,741.668z"/>
</g>
</svg>
